<svg width="1280" height="245" viewBox="0 0 1280 245" fill="none" xmlns="http://www.w3.org/2000/svg">
<path d="M664 195C671.462 199.645 676.142 207.283 680 215C680.619 214.051 681.238 213.103 681.875 212.125C684 209 684.5 208 686 207C687.5 206 689 205.5 692 207C695 208.5 697.741 215.684 698.174 221.235C698.232 223.66 698.224 226.075 698.188 228.5C698.187 229.316 698.186 230.132 698.186 230.973C698.15 235.826 697.698 240.113 697 245C681.49 245 665.98 245 650 245C647.719 240.439 647.768 238.842 649 234C650.625 232 650.625 232 653 231C656.75 231.313 656.75 231.313 660 232C659.662 231.215 659.325 230.43 658.977 229.621C654.745 219.653 651.601 211.005 653 200C655.941 195.416 658.604 193.73 664 195Z" fill="#FAAA4F"/>
<path d="M618.852 218.48C622.388 219.336 623.879 221.13 626 224C630.33 231.423 630 236.079 630 245C618.12 245 606.24 245 594 245C592.458 241.917 592.703 239.391 593 236C594.562 234.062 594.562 234.062 597 233C603.152 232.576 603.152 232.576 606 234C606.021 233.13 606.021 233.13 606.043 232.242C606.289 228.208 606.646 224.811 609 221.437C612.54 218.561 614.397 218.162 618.852 218.48Z" fill="#FAAA4F"/>
<path d="M1251.65 2.69141C1249.37 0.353819 1249.37 0.353819 1243 0C1239.95 3.05436 1238.13 6.61361 1236.73 10.6484L1235.75 14.375L1234.73 18.1484L1234 21C1230.15 14.1712 1224.88 8.52039 1219 3.375C1215.08 1.57984 1211.23 0.903965 1207 2C1204.67 4.2186 1204.06 5.66296 1203.53 8.84766C1203.39 23.0241 1210.38 34.5705 1219.44 45.1875L1222 48L1205.33 64.6707L1204 66C1201.94 64.9919 1200.01 64.0045 1198.11 62.7109L1196.19 61.375C1192.32 58.9562 1189.62 58.1124 1185 59C1182.56 61.0625 1182.56 61.0625 1181 64C1180.52 68.8696 1181.18 72.0756 1183.49 76.3965C1185.09 79.231 1186.6 82.06 1188 85C1188.25 88.9244 1188.25 88.9244 1186.79 92.0312C1181.28 103.932 1178.74 115.822 1176.55 128.703L1176 132C1175.11 130.432 1174.22 128.871 1173.31 127.312C1170.5 122.659 1168.1 117.776 1162.5 116.375C1160 117 1160 117 1157.19 119C1154.07 123.279 1154.07 123.279 1155.5 134L1156 137C1149.96 130.398 1142.18 122.707 1133.3 120.254C1129.28 120.034 1127.57 120.524 1124.44 123.125C1122.77 126.47 1122.54 128.305 1123 132C1126.98 143.8 1135.55 154.047 1145.44 161.312C1147.45 162.656 1147.45 162.656 1149 164V166L1147.3 167.461C1133.52 177.813 1120.85 190.714 1110.27 204.297L1109 206C1108.14 204.457 1107.27 202.918 1106.39 201.387L1105 199C1101.33 192.673 1097.67 186.491 1092.88 180.938C1087.84 175.584 1083.59 172.286 1076 172C1073 174 1073 174 1071.31 176.062C1068.19 183.055 1068.19 183.055 1073.12 199.254L1074 202C1069.74 200.183 1066.68 199.415 1062 200C1058.89 202.314 1057.22 203.686 1056.56 207.562C1057.13 210.745 1058.29 213.079 1060.26 215.641L1061.69 217.25L1063.27 219.051C1064.5 220.439 1065.73 221.833 1066.95 223.23C1068.19 224.654 1069.43 226.076 1070.68 227.496L1072 229C1069.82 228.371 1067.8 227.983 1065.53 227.797L1062.94 227.75C1060.34 227.672 1060.34 227.672 1058 228C1056.21 229.293 1056.21 229.293 1055 231C1054.76 234.358 1054.48 236.95 1056 240C1060.56 243.942 1063.56 245.568 1069.58 245.645L1001 245.124C1003 245 1003 245 1004 244C1005 243 1009.5 228 1008 224C1006.5 220 1003.97 218.21 1000 217C995.639 215.672 992.459 216.37 988.5 219L986 221C986 219.98 986.155 219.161 986 218C985.41 213.587 983.152 210.607 979 209C976.086 207.872 974 208 971 209C968 210 963.973 216.779 963 223C962.578 225.701 963 227.69 963 230L941 219L940.562 210.75L940.432 208.171L940.316 206.109C939.999 200.126 938.254 195.04 935 190C931.833 187.246 929.978 186.115 925.812 185.625C922.282 186.096 920.588 187.373 918.176 189.945L916.312 192.125L914.426 194.32L913 196C911.876 192.118 910.391 188.47 908.688 184.813C906.695 180.938 905.295 178.467 901 177C897.424 176.479 895.627 176.663 892.438 178.375C887.753 183.42 884.956 189.269 884.188 196.125L884 200C868.047 193.636 852.954 189.745 835.812 188.297L832 188C834.408 180.591 835.686 173.808 835 166C833.726 162.177 832.102 160.55 829 158C825.938 157.5 825.938 157.5 823 158C819.408 159.994 817.936 162.594 816.16 166.24L815.25 168.188C814.63 169.472 814.01 170.758 813.391 172.043L812 175C807.843 167.853 802.911 161.663 796 157C789.075 154.793 784.952 155.677 781 162C779.901 167.991 781.478 173.453 783.344 179.129L784 181C781.5 183.125 779.5 184.5 779 186C778.5 187.5 779.029 192.104 780.027 195.695L781 199C769.094 204.058 759.658 210.16 749.75 218.563L747 221C744.499 217.498 742.106 213.707 737.895 212.293C734.341 212.113 732.29 212.775 729.5 214.938C727.195 219.644 727.364 224.214 728.52 229.277L729 231C725.017 229.407 721.263 228.368 716.973 228.5C713.845 229.293 710.367 232.18 709.934 233.59C709.5 235 709 236 709.128 238.204L709.442 240.651C709.622 242.101 709.807 243.551 710 245L697 245H650L630 245H594L435.778 245.123C436.607 244.961 437.37 244.63 438 244C438.376 240.964 438.371 238.036 438 235C436.438 232.375 436.438 232.375 434 231C428.152 230.775 424.861 233.209 420.504 236.723L419 238C419 232.351 417.158 228.65 413.938 224.063C410.221 221.453 410.221 221.453 403.207 221.727C399.827 222.145 399.102 222.878 396.875 225.563L395 228C391.976 224.724 388.678 221.842 385.086 219.211C381.864 217.34 379.617 217.318 376 218C372.146 221.565 369.969 222.445 364.873 222.352L362.688 222.25C360.123 222.188 357.564 222.108 355 222C355.145 219.356 355.259 216.715 355.342 214.068L355.438 210.813C355.662 206.776 355.867 202.967 355 199C353.037 196.493 350.971 195.11 348 194C342.503 193.074 338.496 193.576 335.395 198.602L333.812 201.625L332.207 204.664L331 207C328.118 204.118 326.5 203.5 322.5 204C319 205 318.562 205.5 317 209C316.332 213.961 317.406 218.467 318.562 223.277L319 225C316 225 316 225 313.039 226.242C308.069 228.619 303.142 231.016 298 233L296 230C292.66 226.378 290.231 224.164 285.25 223.5C280.866 224.174 279.291 225.682 276.312 228.938C273.056 233.563 273.34 238.549 274 244C275 245 275 245 277.65 245.126L166 245C166 233 166 233 163 229C159.125 228.375 159.125 228.375 157.008 228.461C154.53 229.126 153.625 230.041 152 232L150 235C147.946 230.808 145.763 226.772 143 223C140.017 220.488 138.315 220.044 134.438 219.5C128.938 220.3 127.229 223.214 126.539 228.594L126.625 232.5C126.675 237.529 127.091 240.227 129 245L88 245C93 233 93 233 93.4375 228.438C92.8378 223.726 90.6444 220.936 87 218C82.9885 217.287 80.5733 218.049 77.125 220L74 222C73.7588 218.96 73.4688 216.009 73 213C71.6637 207.197 70 202 65 199C60.7131 198.211 57.6945 198.537 54 201C50.6584 205.472 47.8065 210.013 47.125 215.625L47 219C44.3218 217.552 41.8282 215.98 39.332 214.234C36.6692 211.683 36.2542 210.535 35.8125 206.938C35.6148 204.95 35.3364 202.969 35 201C32.5 193 28.5575 184.904 21 181C14.0187 179.283 10.6478 180.722 7 187C6.17737 191.097 6.86255 194.519 8 198.5L9 201C6.32189 201.298 3.65463 201.545 1 202C0 203 0 203 0 245V328H1280V245V24C1273.89 25.3083 1267.72 26.4337 1261.79 28.3867L1258.62 29.6875L1255.35 31.0117L1253 32C1253.55 30.3579 1254.08 28.71 1254.55 27.043C1256.16 19.7524 1255.43 9.16331 1251.65 2.69141Z" fill="#FAAA4F"/>
</svg>
