<svg width="1280" height="371" viewBox="0 0 1280 371" fill="none" xmlns="http://www.w3.org/2000/svg">
<path fill-rule="evenodd" clip-rule="evenodd" d="M384 273C380.959 267.344 377.098 262.471 372.152 258.379C370.117 257.075 367.734 255.976 365.289 255.423C373.905 258.47 379.614 264.967 384 273ZM502 367C502.981 367.209 503.894 367.368 504.754 367.478C504.628 367.448 504.495 367.417 504.354 367.385L504.312 367.375L502 367ZM55 261C58.1633 257.309 60.8341 256.43 65.1021 256.783C64.5775 256.676 64.0242 256.582 63.4375 256.5C59.2055 257.116 57.7906 257.744 55 261ZM69.1673 258.155C69.2687 258.207 69.369 258.261 69.4684 258.316C70.8669 259.205 72.1291 260.267 73.2804 261.458C71.96 260.001 70.675 258.937 69.1673 258.155ZM357.36 256.042C359.007 255.256 360.793 254.972 362.602 255.053C360.654 255.142 359.019 255.325 357.36 256.042ZM174 347C175.617 346.858 177.227 346.699 178.833 346.524C177.228 346.701 175.618 346.859 174 347Z" fill="#FED261"/>
<path d="M1262.32 22.0078L1260 23L1259.5 22.4148C1252.8 14.491 1245.51 5.87401 1235.89 1.57812C1227.93 -0.860899 1221.78 2.53172 1217.69 9.4375C1212.71 20.4029 1216.78 34.5864 1220.05 45.5234C1222.19 52.219 1226 59.663 1222.86 66.4805C1220.44 70.3323 1218.44 73.4561 1214 75C1210.18 73.612 1207.2 71.441 1204 69C1199.8 65.6434 1195.94 63.2423 1190.53 62.5664L1186.94 62.5625C1183.34 62.5039 1183.34 62.5039 1180 63C1177.03 64.9695 1175.24 66.6549 1173.19 69.5625C1170.32 77.8554 1171.96 86.3627 1174.87 94.416L1175.56 96.3125C1176.02 97.5795 1176.48 98.8464 1176.94 100.113L1178 103C1174.44 101.085 1172.08 100.49 1168 101C1165.62 102.438 1165.62 102.438 1164 105C1163.52 108.72 1163.62 112.325 1164.45 115.984C1164.85 117.434 1165.2 118.894 1165.54 120.359L1166.06 122.75C1166.38 124.167 1166.69 125.583 1167 127C1165.01 126.611 1163.01 126.294 1161 126C1146.85 125.055 1137.14 126.528 1126 136V138H1124L1122.31 140.23L1120.44 143.188C1118.55 146.119 1117.13 148.476 1116.29 151.863L1116 154L1113 152C1108.23 148.252 1104.07 146.459 1098 147C1094.49 148.54 1093.63 148.765 1092 152C1091.03 158.461 1091.33 164.798 1093.44 171C1094.92 174.556 1095.32 176.894 1096 181L1084 189V187C1079.15 176.893 1071.46 167.189 1063.35 159.484C1058.36 155.609 1054.46 154.244 1048.13 154.559C1043.7 155.477 1041.48 158.464 1039 162C1033.75 175.881 1035.53 190.683 1038.34 204.844L1039 208C1037.86 206.562 1036.71 205.124 1035.56 203.688C1034.04 201.793 1032.52 199.897 1031 198C1027.27 193.234 1023.78 188.442 1019.06 184.625L1016 183C1008.45 178.272 1001.92 176.616 993 178C985.528 180.585 980.378 187.47 976.805 194.277L976 196L973.875 192.812C969.627 186.889 964.059 181.839 956.645 180.609C952.102 180.307 948.815 180.574 945.125 183.375C938.962 189.86 937.529 197.562 937.6 206.264L937.688 209.438C937.722 213.296 937.714 217.151 938 221C938.54 222.619 939.062 224.247 939.481 225.901L939.973 228.012L940.51 230.307L941.062 232.688C941.71 235.458 942.356 238.229 943 241C939.715 237.715 936.146 235.105 932 233C927.923 232.175 924.51 232.347 920.688 234C916.298 239.203 914.449 244.11 914.809 250.922L915 253C915.419 257.82 915.419 257.82 919.16 267.805L920 270C918 270 918 270 914.961 270.875L911.375 272L907.773 273.125L905 274V272C902.836 269.253 901.34 268.113 898 267C895 267 895 267 892.562 268.438C890.817 271.3 890.857 272.046 891.25 275.25L892 279L881 281C878.48 270.638 874.935 260.629 869.438 251.438L869.242 251.147C866.476 247.048 864.064 243.473 859 242.312C856 243 856 243 853.332 245.52C850.794 248.72 850.469 251.202 850.561 255.215L850.688 257.375C850.732 258.82 850.777 260.266 850.824 261.711L851 265C849 263 849 263 845.562 262.188C842 262 842 262 840.062 263.438L839 265L836 264C832.404 263.391 829.22 262.768 826 261C824.715 258.867 824.715 258.867 824.125 256.312C823.253 252.182 822.213 248.853 820.215 245.137L819 243C814.957 235.621 811.033 229.329 803 226C798.355 225.01 794.481 225.464 790.25 227.625C785.953 230.453 782.616 233.82 781.188 238.875L781 241C778.717 240.149 778.717 240.149 778.105 237.43C777 234 777 234 776.206 232.138C772.067 223.254 768.122 212.322 758.375 208.625C755 209 755 209 752.316 211.531C749.994 214.508 749.425 216.978 749.459 220.812L749.562 222.875C749.673 227.329 749.934 231.658 751 236L752 239H748C745.75 240.312 745.75 240.312 744 243C743.138 249.357 744.106 255.494 745.48 261.703C746.186 264.82 746.734 267.812 747 271C740.044 277.956 738.9 285.54 738.875 295.125L739 300L719 299C715.967 292.935 712.151 287.8 706.938 283.438C703.645 281.826 701.619 281.589 698 282C695.007 283.497 693.821 285.18 692 288C690.84 292.467 690.762 296.095 691.938 300.562L693 303C678.991 302.813 665.438 305.34 651.777 308.195L648 309C647.637 306.695 647.637 306.695 647 304C643.873 299.533 641.263 296.857 636 295C631.997 294.362 628.865 294.558 625.188 296.438C622.56 299.516 621.603 302.326 620.48 306.172L620 308C617.518 303.932 615.223 300.035 611.562 296.938C608.206 295.71 605.546 295.672 602 296C599 298 599 298 597.312 301.125L596 304C594.425 301.233 592.78 298.531 591.066 295.848C587.523 290.965 583.777 287.599 577.812 286.312C573.956 287.255 573.956 287.255 570 292C567.622 301.248 567.622 301.248 576.357 330.851L577 333C575 333 575 333 572.609 334.023C567.805 336.294 563.106 338.482 558 340C557.312 338.375 557.312 338.375 556 336C553.326 332.104 551.992 330.274 547.375 329C544 329 544 329 541 331C538.406 334.261 537.061 336.179 536.75 340.375L537 343L535.137 342.895L532.688 342.812L532.53 342.806C529.817 342.687 528.488 342.629 526.258 344.324C524.4 346.799 524.191 348.95 524 352C526 355 526 355 528.125 356.188L530 357V359C527.934 359.445 526.113 359.946 524.204 360.864L522.391 361.883C521.009 362.627 519.628 363.374 518.25 364.125C513.147 367.026 509.857 368.127 504.754 367.478C503.894 367.368 502.981 367.209 502 367L502.035 364.734L502.062 361.75C502.103 358.31 502.073 355.283 501 352C499.071 348.356 498.018 346.399 494.125 344.875C491 345 491 345 487.625 346.938L485 349C485 345.876 484.25 343.971 482.969 341.164L482.062 339.25C476.181 326.79 468.933 310.334 456 304C451.688 303.358 448.72 303.52 445 306C441.045 310.767 439.427 315.167 439.043 321.312L439 323C435.327 320.694 433.458 319.049 431.699 315.02C429.403 308.521 427.671 302.336 422 298C418.529 296.75 417.035 296.525 413.688 298.062C412 300 412 300 411.25 303.188L411 306C409 305 409 305 406.836 304.246L404.375 303.438L401.898 302.621L400 302C401.917 298.166 403.112 294.188 404 290C404.473 283.008 405.249 275.977 400.875 270.188C398 268 398 268 394.625 267.812C390.58 269.138 388.352 270.858 385.285 273.723L384 275V273C379.614 264.967 373.905 258.47 365.289 255.423C364.397 255.221 363.497 255.092 362.602 255.053C360.654 255.142 359.019 255.325 357.36 256.042C357.322 256.06 357.285 256.078 357.247 256.097C356.622 256.405 356.016 256.787 355.438 257.25C352.607 260.696 351.083 263.085 350.672 267.629L350.75 271.562C350.81 276.63 351.048 280.692 352.973 285.359L354.062 287.75L355.16 290.172L356 292C345.68 291.773 335.687 294.441 325.824 297.195L323 298C322.676 292.873 322.669 287.914 319 284C315.562 283.062 315.562 283.062 312 283C308.806 283.887 308.112 284.832 306.25 287.625L305 290C300.789 283.683 294.146 277.68 287.141 274.59C281.605 273.065 276.129 272.891 271 275.562C268.468 278.648 267.151 281.163 266 285C266 295.471 271.953 303.387 278.426 311.164L280 313C276.127 315.446 272.562 318.116 269 321C265.438 323.884 261.873 326.554 258 329C258 325.717 258 325.717 252 319C248.529 316.008 244.995 314.754 240.438 314.562C234.932 314.853 231.497 316.464 227.625 320.438C225.28 325.578 225.51 330.431 226 336L227 339C226.007 339 225.339 338.907 224.5 339C223.461 339.115 222.097 339.465 218.779 340.042C217.023 340.35 215.267 340.656 213.51 340.96C210.673 341.451 207.837 341.944 205 342.438C202.192 342.928 199.384 343.419 196.575 343.905L193.875 344.371C188.864 345.255 183.873 345.972 178.838 346.523L178.833 346.524C177.228 346.701 175.618 346.859 174 347L173 345C169.268 339.757 165.261 335.907 159 334C154.975 334 153.402 334.712 150.125 337.062L148 339C148 336.646 148 336.646 144.48 330.504L143 328C139.28 321.701 135.25 316.013 129 312C125.75 311.375 125.75 311.375 123 312C120.311 313.584 119.178 314.578 117.953 317.48L117.25 320.188L116.516 322.918L116 325C110.768 323.075 105.765 320.794 100.953 317.973C92.5315 308.701 92.5315 308.701 89.582 296.109C88.4085 291.35 86.9357 286.944 84.9751 282.454L83.9375 280.188C81.2251 274.253 78.3217 268.492 74.6484 263.082C74.1816 262.492 73.7289 261.952 73.2804 261.458C72.1291 260.267 70.8669 259.205 69.4684 258.316C69.369 258.261 69.2687 258.207 69.1673 258.155C67.9892 257.543 66.6752 257.103 65.1021 256.783C60.8341 256.43 58.1633 257.309 55 261C50.4324 269.897 51.1013 281.873 52.5156 291.516L53 294C51 293 51 293 48.8359 292.246L46.375 291.438L43.8984 290.621L42 290C42 286.13 42 286.13 35 274C32.3695 270.521 30.0282 268.465 25.7344 267.48C21.5801 267.185 19.5076 267.662 16 270C14.1003 272.85 13.621 274.059 13.1875 277.312L13 281L0 279V371V454H1280V371V31C1277.89 30.1098 1277.89 30.1098 1276.48 28.1875C1274.75 25.996 1273 23.9528 1271 22C1267.39 20.7003 1265.89 20.6656 1262.32 22.0078Z" fill="#FED261"/>
</svg>
