<svg width="1280" height="690" viewBox="0 0 1280 690" fill="none" xmlns="http://www.w3.org/2000/svg">
<path d="M1280 0.00244141V690.002H0V598.002L13 600.002L13.1875 596.315C13.621 593.061 14.1003 591.852 16 589.002C19.5076 586.664 21.5801 586.187 25.7344 586.483C30.0282 587.468 32.3695 589.523 35 593.002C42 605.132 42 605.132 42 609.002L43.8984 609.624L46.375 610.44L48.8359 611.249C51 612.002 51 612.002 53 613.002L52.5156 610.518C51.1013 600.875 50.4324 588.899 55 580.002C57.7906 576.747 59.2055 576.118 63.4375 575.502C68.8003 576.255 71.3755 577.951 74.6484 582.084C78.3217 587.495 81.2251 593.255 83.9375 599.19L84.9751 601.456C86.9357 605.947 88.4085 610.352 89.582 615.112C92.5315 627.704 92.5315 627.704 100.953 636.975C105.765 639.796 110.768 642.077 116 644.002L116.516 641.92L117.25 639.19L117.953 636.483C119.178 633.58 120.311 632.586 123 631.002C125.75 630.377 125.75 630.377 129 631.002C135.25 635.015 139.28 640.704 143 647.002L144.48 649.506C148 655.648 148 655.648 148 658.002L150.125 656.065C153.402 653.714 154.975 653.002 159 653.002C165.261 654.909 169.268 658.759 173 664.002L174 666.002C180.689 665.416 187.264 664.539 193.875 663.374L196.575 662.907C199.384 662.421 202.192 661.931 205 661.44C207.837 660.946 210.673 660.453 213.51 659.962C215.267 659.658 217.023 659.352 218.779 659.044C224.777 658.002 224.777 658.002 227 658.002L226 655.002C225.51 649.434 225.28 644.58 227.625 639.44C231.497 635.466 234.932 633.855 240.438 633.565C244.995 633.756 248.529 635.011 252 638.002C258 644.719 258 644.719 258 648.002C261.873 645.556 265.438 642.887 269 640.002C272.562 637.118 276.127 634.449 280 632.002L278.426 630.167C271.953 622.39 266 614.474 266 604.002C267.151 600.165 268.468 597.651 271 594.565C276.129 591.894 281.605 592.067 287.141 593.592C294.146 596.682 300.789 602.686 305 609.002L306.25 606.627C308.112 603.834 308.806 602.89 312 602.002C315.562 602.065 315.562 602.065 319 603.002C322.669 606.917 322.676 611.875 323 617.002L325.824 616.198C335.687 613.444 345.68 610.776 356 611.002L355.16 609.174L354.062 606.752L352.973 604.362C351.048 599.694 350.81 595.633 350.75 590.565L350.672 586.631C351.015 582.831 351.777 581.042 354 578.002L355.25 576.252C358.11 574.21 360.526 574.118 364 574.002C373.342 576.838 379.399 583.575 384 592.002V594.002L385.285 592.725C388.352 589.861 390.58 588.14 394.625 586.815C398 587.002 398 587.002 400.875 589.19C404.146 593.52 404.138 596.948 404.125 602.268L404.125 602.44L404.133 605.811C404.014 608.675 403.597 611.21 403 614.002C419.287 606.035 435.271 597.769 450.99 588.719C455.543 586.122 460.132 583.589 464.721 581.056L466.114 580.288C475.332 575.195 484.486 570.02 493.539 564.639C501.371 559.991 509.283 555.479 517.176 550.936C521.658 548.355 526.135 545.764 530.605 543.163C544.93 534.838 559.371 526.779 574 519.002L576.845 517.484C631.948 488.139 687.902 466.876 750.188 459.752L752.379 459.501C768.28 457.698 784.123 456.774 800.125 456.752L802.586 456.745C817.931 456.729 833.188 457.556 848.5 458.502C866.195 459.586 883.833 460.33 901.562 460.377L904.418 460.4C932.534 460.586 959.472 456.22 983 440.002L985.562 438.252C991.008 433.226 993.621 427.666 994.375 420.377C994.231 413.917 991.403 408.573 987.039 403.905C965.988 385.835 935.275 378.172 909.5 369.815C883.222 361.279 883.222 361.279 873.176 357.174L871.162 356.356C863.685 353.197 856.484 348.576 853 341.002C852.231 336.518 852.589 333.049 854.25 328.815C861.959 320.93 873.771 318.284 884.092 315.307C888.096 314.147 892.087 312.943 896.078 311.737L898.443 311.023C919.808 304.529 946.235 296.433 958 276.002C968.433 254.584 967.249 232.281 960 210.002C951.644 186.462 936.5 165.445 918.328 148.456C917 147.002 917 147.002 917 145.002L915.18 144.186C912.985 142.994 911.787 141.902 910.125 140.065C905.272 135.067 899.736 130.934 894.217 126.708C892.519 125.402 890.83 124.084 889.145 122.762C881.222 116.563 873.071 110.809 864.688 105.252L862.727 103.948C850.435 95.7903 837.886 88.1891 825 81.0024L822.171 79.4092C762.095 45.6676 708.104 26.7189 632 1.00244C396.403 -78.6089 0 -76.9976 0 -76.9976H1280V0.00244141Z" fill="#4594FE"/>
</svg>
