<svg width="139" height="70" viewBox="0 0 139 70" fill="none" xmlns="http://www.w3.org/2000/svg">
<path d="M139 0.500006C139 9.62688 137.202 18.6644 133.71 27.0965C130.217 35.5286 125.098 43.1903 118.644 49.6439C112.19 56.0976 104.529 61.2169 96.0965 64.7096C87.6644 68.2023 78.6269 70 69.5 70C60.3731 70 51.3356 68.2023 42.9035 64.7096C34.4714 61.2169 26.8097 56.0976 20.3561 49.6439C13.9024 43.1903 8.78307 35.5286 5.29037 27.0965C1.79767 18.6644 -7.97896e-07 9.62687 0 0.5L25.8213 0.500002C25.8213 6.23598 26.951 11.9158 29.1461 17.2151C31.3412 22.5145 34.5585 27.3296 38.6145 31.3855C42.6704 35.4415 47.4855 38.6588 52.7849 40.8539C58.0842 43.049 63.764 44.1787 69.5 44.1787C75.236 44.1787 80.9158 43.049 86.2151 40.8539C91.5145 38.6588 96.3296 35.4415 100.386 31.3855C104.441 27.3296 107.659 22.5145 109.854 17.2151C112.049 11.9158 113.179 6.23598 113.179 0.500006H139Z" fill="#FFD361"/>
</svg>
