<svg width="1280" height="874" viewBox="0 0 1280 874" fill="none" xmlns="http://www.w3.org/2000/svg">
<g clip-path="url(#clip0_224_3)">
<path d="M1280 -1.36279e-06V767H0V664.733L13 666.956L13.1875 662.857C13.621 659.24 14.1003 657.896 16 654.729C19.5075 652.129 21.5801 651.599 25.7344 651.928C30.0282 653.022 32.3695 655.308 35 659.175C42 672.658 42 672.658 42 676.961L43.8984 677.651L46.375 678.558L48.8359 679.457C51 680.295 51 680.295 53 681.407L52.5156 678.645C51.1013 667.926 50.4324 654.614 55 644.724C57.7905 641.105 59.2055 640.406 63.4375 639.722C68.8003 640.559 71.3755 642.444 74.6484 647.039C78.3217 653.053 81.2251 659.456 83.9375 666.053L84.9751 668.572C86.9357 673.564 88.4084 678.461 89.582 683.752C92.5315 697.749 92.5315 697.749 100.953 708.055C105.765 711.191 110.768 713.726 116 715.866L116.516 713.552L117.25 710.517L117.953 707.508C119.178 704.281 120.311 703.176 123 701.416C125.75 700.721 125.75 700.721 129 701.416C135.25 705.876 139.279 712.2 143 719.201L144.48 721.984C148 728.812 148 728.812 148 731.429L150.125 729.275C153.402 726.662 154.975 725.871 159 725.871C165.26 727.991 169.268 732.27 173 738.098L174 740.321C180.688 739.669 187.264 738.695 193.875 737.399L196.575 736.881C199.384 736.341 202.192 735.796 205 735.25C207.836 734.701 210.673 734.153 213.51 733.607C215.267 733.269 217.023 732.929 218.779 732.587C224.777 731.429 224.777 731.429 227 731.429L226 728.094C225.51 721.904 225.28 716.509 227.625 710.795C231.497 706.377 234.932 704.587 240.437 704.264C244.995 704.477 248.529 705.871 252 709.197C258 716.663 258 716.663 258 720.313C261.873 717.593 265.438 714.626 269 711.42C272.562 708.214 276.126 705.247 280 702.527L278.426 700.486C271.953 691.842 266 683.042 266 671.403C267.151 667.137 268.468 664.342 271 660.912C276.129 657.943 281.605 658.135 287.14 659.831C294.146 663.265 300.789 669.939 305 676.961L306.25 674.321C308.112 671.216 308.806 670.166 312 669.179C315.562 669.249 315.562 669.249 319 670.291C322.669 674.642 322.676 680.154 323 685.853L325.824 684.959C335.687 681.897 345.68 678.932 356 679.184L355.16 677.152L354.062 674.459L352.972 671.802C351.048 666.613 350.81 662.099 350.75 656.466L350.672 652.093C351.015 647.869 351.777 645.88 354 642.501L355.25 640.556C358.11 638.285 360.526 638.183 364 638.055C373.342 641.207 379.399 648.696 384 658.063V660.287L385.285 658.867C388.352 655.683 390.58 653.77 394.625 652.297C398 652.505 398 652.505 400.875 654.937C404.146 659.75 404.138 663.561 404.125 669.475L404.125 669.666L404.133 673.413C404.013 676.596 403.597 679.415 403 682.519C419.287 673.662 435.271 664.473 450.99 654.414C455.541 651.529 460.127 648.715 464.714 645.901L466.114 645.042C475.332 639.381 484.486 633.628 493.539 627.647C501.371 622.48 509.283 617.465 517.176 612.414C521.659 609.545 526.135 606.665 530.606 603.773C544.93 594.519 559.371 585.562 574 576.917L576.845 575.23C631.948 542.609 687.903 518.974 750.188 511.055L752.379 510.775C768.28 508.771 784.124 507.744 800.125 507.72L802.586 507.712C817.931 507.695 833.189 508.613 848.5 509.666C866.195 510.871 883.833 511.697 901.563 511.75L904.418 511.775C932.534 511.982 959.473 507.129 983.001 489.101L985.563 487.156C991.009 481.568 993.621 475.387 994.375 467.286C994.231 460.104 991.404 454.164 987.04 448.975C965.988 428.889 935.276 420.371 909.5 411.081C883.222 401.592 883.222 401.592 873.176 397.03L871.162 396.12C863.685 392.609 856.484 387.472 853 379.053C852.231 374.068 852.59 370.213 854.25 365.506C861.96 356.741 873.771 353.8 884.092 350.49C888.097 349.201 892.088 347.862 896.078 346.522L898.444 345.728C919.809 338.51 946.236 329.51 958 306.8C968.434 282.991 967.25 258.199 960 233.435C951.644 207.267 936.5 183.905 918.328 165.02C917 163.404 917 163.404 917 161.181L915.18 160.274C912.986 158.949 911.787 157.734 910.125 155.693C905.272 150.137 899.737 145.542 894.217 140.845C892.519 139.393 890.83 137.929 889.145 136.458C881.222 129.568 873.072 123.172 864.688 116.995L862.727 115.546C850.436 106.477 837.886 98.0277 825 90.0391L822.172 88.2681C762.096 50.7611 713.501 29.4572 632 1.11159C550.5 -27.2341 0 -85.5928 0 -85.5928H1280V-1.36279e-06Z" fill="#4594FE"/>
<path d="M1235.89 356.353C1245.75 361.246 1253.16 371.182 1260 380.165C1260.77 379.801 1261.53 379.437 1262.32 379.062C1265.89 377.57 1267.39 377.609 1271 379.054C1273 381.224 1274.75 383.496 1276.48 385.932C1277.89 388.068 1277.89 388.068 1280 389.058C1280 513.779 1280 638.5 1280 767C857.6 767 435.2 767 0 767C0 733.252 0 699.504 0 664.733C4.29 665.467 8.58 666.201 13 666.957C13.0619 665.604 13.1238 664.251 13.1875 662.858C13.621 659.24 14.1003 657.897 16 654.729C19.5076 652.13 21.5801 651.6 25.7344 651.928C30.0282 653.023 32.3695 655.308 35 659.175C42 672.659 42 672.659 42 676.961C42.6265 677.189 43.253 677.417 43.8984 677.651C44.7157 677.951 45.533 678.25 46.375 678.559C47.1871 678.855 47.9992 679.152 48.8359 679.458C51 680.296 51 680.296 53 681.407C52.8402 680.496 52.6803 679.585 52.5156 678.646C51.1013 667.926 50.4324 654.614 55 644.725C57.7906 641.106 59.2055 640.407 63.4375 639.722C68.8003 640.559 71.3755 642.444 74.6484 647.039C78.3217 653.053 81.2251 659.456 83.9375 666.053C84.2799 666.885 84.6223 667.716 84.9751 668.573C86.9357 673.564 88.4085 678.461 89.582 683.752C92.5315 697.749 92.5315 697.749 100.953 708.055C105.765 711.191 110.768 713.726 116 715.867C116.17 715.103 116.34 714.339 116.516 713.552C116.879 712.05 116.879 712.05 117.25 710.517C117.482 709.524 117.714 708.531 117.953 707.508C119.178 704.281 120.311 703.176 123 701.416C125.75 700.721 125.75 700.721 129 701.416C135.25 705.877 139.28 712.2 143 719.201C143.489 720.12 143.977 721.038 144.48 721.985C148 728.812 148 728.812 148 731.429C148.701 730.718 149.402 730.008 150.125 729.275C153.402 726.662 154.975 725.871 159 725.871C165.261 727.991 169.268 732.27 173 738.099C173.33 738.832 173.66 739.566 174 740.322C180.689 739.669 187.264 738.695 193.875 737.399C194.766 737.228 195.657 737.057 196.575 736.881C199.384 736.341 202.192 735.796 205 735.25C207.837 734.701 210.673 734.153 213.51 733.607C215.267 733.269 217.023 732.929 218.779 732.587C224.777 731.429 224.777 731.429 227 731.429C226.67 730.329 226.34 729.228 226 728.094C225.51 721.904 225.28 716.509 227.625 710.795C231.497 706.378 234.932 704.587 240.438 704.264C244.995 704.477 248.529 705.872 252 709.197C258 716.663 258 716.663 258 720.313C261.873 717.594 265.438 714.626 269 711.42C272.562 708.214 276.127 705.247 280 702.528C279.481 701.854 278.961 701.181 278.426 700.487C271.953 691.842 266 683.043 266 671.403C267.151 667.137 268.468 664.342 271 660.912C276.129 657.943 281.605 658.136 287.141 659.831C294.146 663.266 300.789 669.939 305 676.961C305.412 676.09 305.825 675.218 306.25 674.321C308.112 671.216 308.806 670.166 312 669.18C315.562 669.249 315.562 669.249 319 670.291C322.669 674.642 322.676 680.154 323 685.854C323.932 685.558 324.864 685.263 325.824 684.959C335.687 681.898 345.68 678.932 356 679.184C355.584 678.178 355.584 678.178 355.16 677.152C354.798 676.264 354.436 675.375 354.062 674.46C353.703 673.583 353.343 672.706 352.973 671.802C351.048 666.614 350.81 662.099 350.75 656.466C350.724 655.023 350.698 653.58 350.672 652.093C351.015 647.869 351.777 645.88 354 642.501C354.412 641.86 354.825 641.218 355.25 640.556C358.11 638.285 360.526 638.184 364 638.055C373.342 641.207 379.399 648.696 384 658.064C384 658.797 384 659.531 384 660.287C384.424 659.818 384.848 659.35 385.285 658.867C388.352 655.683 390.58 653.77 394.625 652.297C398 652.506 398 652.506 400.875 654.937C405.249 661.373 404.473 669.188 404 676.961C403.112 681.617 401.917 686.038 400 690.3C400.626 690.528 401.253 690.756 401.898 690.99C403.124 691.44 403.124 691.44 404.375 691.898C405.593 692.343 405.593 692.343 406.836 692.797C409 693.635 409 693.635 411 694.746C411.083 693.715 411.165 692.683 411.25 691.62C412 688.077 412 688.077 413.688 685.923C417.035 684.214 418.529 684.465 422 685.854C427.671 690.674 429.403 697.549 431.699 704.772C433.458 709.252 435.327 711.08 439 713.643C439.014 713.024 439.028 712.405 439.043 711.768C439.427 704.937 441.045 700.045 445 694.746C448.72 691.989 451.688 691.81 456 692.523C468.933 699.565 476.181 717.856 482.062 731.707C482.511 732.76 482.511 732.76 482.969 733.835C484.25 736.954 485 739.073 485 742.545C485.866 741.788 486.733 741.032 487.625 740.252C491 738.099 491 738.099 494.125 737.96C498.018 739.653 499.071 741.829 501 745.88C502.073 749.529 502.103 752.894 502.062 756.718C502.053 757.813 502.044 758.907 502.035 760.035C502.024 760.866 502.012 761.697 502 762.554C508.798 764.163 512.286 763.126 518.25 759.358C519.628 758.523 521.009 757.692 522.391 756.865C522.989 756.492 523.588 756.118 524.204 755.733C526.113 754.712 527.934 754.156 530 753.661C530 752.927 530 752.194 530 751.438C529.072 750.991 529.072 750.991 528.125 750.535C526 749.215 526 749.215 524 745.88C524.191 742.489 524.4 740.099 526.258 737.347C528.531 735.427 529.867 735.531 532.688 735.667C533.496 735.697 534.304 735.727 535.137 735.758C536.059 735.816 536.059 735.816 537 735.875C536.876 734.431 536.876 734.431 536.75 732.957C537.061 728.293 538.406 726.161 541 722.536C544 720.313 544 720.313 547.375 720.313C551.992 721.729 553.326 723.763 556 728.094C557.312 730.734 557.312 730.734 558 732.541C563.106 730.853 567.805 728.421 572.609 725.897C575 724.759 575 724.759 577 724.759C576.682 723.577 576.682 723.577 576.357 722.371C567.622 689.464 567.622 689.464 570 679.184C573.956 673.91 573.956 673.91 577.812 672.862C583.777 674.292 587.523 678.034 591.066 683.461C592.78 686.444 594.425 689.448 596 692.523C596.65 690.941 596.65 690.941 597.312 689.327C599 685.854 599 685.854 602 683.63C605.546 683.265 608.206 683.308 611.562 684.673C615.223 688.116 617.518 692.447 620 696.97C620.159 696.299 620.317 695.628 620.48 694.937C621.603 690.662 622.56 687.538 625.188 684.117C628.865 682.027 631.997 681.809 636 682.519C641.263 684.584 643.873 687.557 647 692.523C647.637 695.519 647.637 695.519 648 698.081C649.247 697.786 650.493 697.491 651.777 697.187C665.438 694.013 678.991 691.204 693 691.412C692.649 690.517 692.299 689.623 691.938 688.702C690.762 683.736 690.84 679.703 692 674.738C693.821 671.603 695.007 669.732 698 668.068C701.619 667.611 703.645 667.875 706.938 669.666C712.151 674.515 715.967 680.223 719 686.965C725.6 687.332 732.2 687.699 739 688.077C738.938 685.394 738.938 685.394 738.875 682.658C738.9 672.003 740.044 663.573 747 655.841C746.734 652.296 746.186 648.971 745.48 645.506C744.106 638.604 743.138 631.783 744 624.716C745.75 621.729 745.75 621.729 748 620.27C749.32 620.27 750.64 620.27 752 620.27C751.67 619.169 751.34 618.069 751 616.935C749.934 612.108 749.673 607.297 749.562 602.345C749.511 601.21 749.511 601.21 749.459 600.052C749.425 595.79 749.994 593.044 752.316 589.735C755 586.922 755 586.922 758.375 586.505C768.122 590.614 772.067 602.767 776.206 612.641C777 614.712 777 614.712 778.105 618.524C778.717 621.547 778.717 621.547 781 622.493C781.093 621.324 781.093 621.324 781.188 620.131C782.616 614.512 785.953 610.769 790.25 607.625C794.481 605.223 798.355 604.719 803 605.819C811.033 609.519 814.957 616.514 819 624.716C819.601 625.892 819.601 625.892 820.215 627.091C822.213 631.222 823.253 634.922 824.125 639.514C824.715 642.354 824.715 642.354 826 644.725C829.22 646.69 832.404 647.382 836 648.059C836.99 648.426 837.98 648.793 839 649.171C839.351 648.598 839.701 648.025 840.062 647.434C842 645.836 842 645.836 845.562 646.045C849 646.948 849 646.948 851 649.171C850.942 647.965 850.884 646.758 850.824 645.515C850.777 643.908 850.732 642.302 850.688 640.695C850.646 639.903 850.604 639.11 850.561 638.294C850.469 633.833 850.794 631.074 853.332 627.517C856 624.716 856 624.716 859 623.952C864.183 625.272 866.588 629.404 869.438 634.095C874.935 644.312 878.48 655.439 881 666.957C884.63 666.223 888.26 665.489 892 664.733C891.752 663.358 891.505 661.982 891.25 660.565C890.857 657.004 890.817 656.174 892.562 652.992C895 651.394 895 651.394 898 651.394C901.34 652.632 902.836 653.899 905 656.952C905 657.686 905 658.419 905 659.175C905.915 658.854 906.83 658.533 907.773 658.203C908.962 657.79 910.15 657.377 911.375 656.952C912.558 656.54 913.742 656.127 914.961 655.702C918 654.729 918 654.729 920 654.729C919.723 653.924 919.446 653.118 919.16 652.289C915.419 641.189 915.419 641.189 915 635.832C914.937 635.07 914.874 634.307 914.809 633.522C914.449 625.95 916.298 620.495 920.688 614.712C924.51 612.874 927.923 612.683 932 613.6C936.146 615.94 939.715 618.842 943 622.493C942.356 619.412 941.71 616.332 941.062 613.253C940.789 611.943 940.789 611.943 940.51 610.606C940.333 609.764 940.155 608.922 939.973 608.055C939.81 607.281 939.648 606.507 939.481 605.709C939.062 603.87 938.54 602.061 938 600.261C937.714 595.982 937.722 591.697 937.688 587.408C937.658 586.244 937.629 585.08 937.6 583.88C937.529 574.207 938.962 565.646 945.125 558.437C948.815 555.324 952.102 555.027 956.645 555.363C964.059 556.73 969.627 562.343 973.875 568.928C974.576 570.097 975.277 571.266 976 572.471C976.266 571.839 976.531 571.207 976.805 570.556C980.378 562.989 985.528 555.336 993 552.462C1001.92 550.924 1008.45 552.765 1016 558.02C1017.01 558.616 1018.02 559.212 1019.06 559.827C1023.78 564.07 1027.27 569.396 1031 574.694C1032.52 576.803 1034.04 578.911 1035.56 581.016C1036.71 582.614 1037.86 584.211 1039 585.81C1038.78 584.652 1038.57 583.495 1038.34 582.302C1035.53 566.561 1033.75 550.106 1039 534.677C1041.48 530.746 1043.7 527.426 1048.13 526.405C1054.46 526.055 1058.36 527.573 1063.35 531.88C1071.46 540.445 1079.15 551.231 1084 562.467C1084 563.2 1084 563.934 1084 564.69C1087.96 561.755 1091.92 558.821 1096 555.797C1095.32 551.232 1094.92 548.634 1093.44 544.681C1091.33 537.788 1091.03 530.743 1092 523.561C1093.63 519.965 1094.49 519.715 1098 518.003C1104.07 517.402 1108.23 519.394 1113 523.561C1113.99 524.295 1114.98 525.028 1116 525.784C1116.09 525 1116.19 524.216 1116.29 523.409C1117.13 519.643 1118.55 517.023 1120.44 513.765C1121.05 512.68 1121.67 511.596 1122.31 510.478C1123.15 509.251 1123.15 509.251 1124 507.999C1124.66 507.999 1125.32 507.999 1126 507.999C1126 507.265 1126 506.531 1126 505.775C1137.14 495.246 1146.85 493.609 1161 494.659C1163.01 494.986 1165.01 495.338 1167 495.771C1166.69 494.196 1166.38 492.621 1166.06 491.047C1165.8 489.731 1165.8 489.731 1165.54 488.389C1165.2 486.761 1164.85 485.138 1164.45 483.526C1163.62 479.458 1163.52 475.451 1164 471.316C1165.62 468.467 1165.62 468.467 1168 466.87C1172.08 466.302 1174.44 466.964 1178 469.093C1177.48 467.504 1177.48 467.504 1176.94 465.884C1176.48 464.476 1176.02 463.067 1175.56 461.659C1175.33 460.963 1175.1 460.268 1174.87 459.551C1171.96 450.599 1170.32 441.142 1173.19 431.924C1175.24 428.692 1177.03 426.818 1180 424.629C1183.34 424.078 1183.34 424.078 1186.94 424.143C1188.71 424.145 1188.71 424.145 1190.53 424.147C1195.94 424.898 1199.8 427.567 1204 431.299C1207.2 434.012 1210.18 436.425 1214 437.968C1218.44 436.252 1220.44 432.78 1222.86 428.498C1226 420.92 1222.19 412.645 1220.05 405.202C1216.78 393.045 1212.71 377.278 1217.69 365.089C1221.78 357.413 1227.93 353.642 1235.89 356.353Z" fill="#FED261"/>
<path d="M372.152 641.811C377.098 646.359 380.959 651.777 384 658.064C384 658.797 384 659.531 384 660.287C384.424 659.818 384.848 659.35 385.285 658.867C388.352 655.683 390.58 653.77 394.625 652.297C398 652.506 398 652.506 400.875 654.937C405.249 661.373 404.473 669.188 404 676.961C403.112 681.617 401.917 686.038 400 690.3C400.626 690.528 401.253 690.756 401.898 690.99C402.716 691.29 403.533 691.589 404.375 691.898C405.187 692.195 405.999 692.491 406.836 692.797C409 693.635 409 693.635 411 694.746C411.083 693.715 411.165 692.683 411.25 691.62C412 688.077 412 688.077 413.688 685.923C417.035 684.214 418.529 684.465 422 685.854C427.671 690.674 429.403 697.549 431.699 704.772C433.458 709.252 435.327 711.08 439 713.643C439.014 713.024 439.028 712.405 439.043 711.768C439.427 704.937 441.045 700.045 445 694.746C448.72 691.989 451.688 691.81 456 692.523C468.933 699.565 476.181 717.856 482.062 731.707C482.362 732.409 482.661 733.111 482.969 733.835C484.25 736.954 485 739.073 485 742.545C485.866 741.788 486.733 741.032 487.625 740.252C491 738.099 491 738.099 494.125 737.96C498.018 739.653 499.071 741.829 501 745.88C502.073 749.529 502.103 752.894 502.062 756.718C502.053 757.813 502.044 758.907 502.035 760.035C502.018 761.282 502.018 761.282 502 762.554C503.145 762.76 503.145 762.76 504.312 762.97C507 763.665 507 763.665 510 765.888C508.208 767.88 505.78 767.137 503.394 767.146C502.58 767.143 501.766 767.14 500.928 767.137C499.637 767.139 499.637 767.139 498.32 767.141C495.399 767.144 492.477 767.139 489.556 767.134C487.456 767.134 485.355 767.135 483.255 767.137C477.454 767.139 471.653 767.135 465.852 767.129C459.607 767.124 453.362 767.126 447.117 767.127C436.288 767.127 425.459 767.124 414.63 767.118C403.268 767.111 391.906 767.107 380.544 767.105C379.839 767.105 379.133 767.105 378.406 767.105C374.823 767.105 371.24 767.105 367.657 767.104C342.257 767.102 316.857 767.094 291.456 767.084C266.775 767.074 242.094 767.066 217.413 767.061C216.653 767.061 215.893 767.061 215.109 767.061C207.474 767.059 199.838 767.058 192.203 767.056C176.648 767.054 161.092 767.05 145.537 767.047C144.822 767.047 144.107 767.047 143.37 767.047C95.5798 767.036 47.7899 767.019 0 767C0 733.252 0 699.504 0 664.733C4.29 665.467 8.58 666.201 13 666.957C13.0928 664.928 13.0928 664.928 13.1875 662.858C13.621 659.24 14.1003 657.897 16 654.729C19.5076 652.13 21.5801 651.6 25.7344 651.928C30.0282 653.023 32.3695 655.308 35 659.175C42 672.659 42 672.659 42 676.961C42.6265 677.189 43.253 677.417 43.8984 677.651C44.7157 677.951 45.533 678.25 46.375 678.559C47.1871 678.855 47.9992 679.152 48.8359 679.458C51 680.296 51 680.296 53 681.407C52.8402 680.496 52.6803 679.585 52.5156 678.646C51.1013 667.926 50.4324 654.614 55 644.725C57.7906 641.106 59.2055 640.407 63.4375 639.722C68.8003 640.559 71.3755 642.444 74.6484 647.039C78.3217 653.053 81.2251 659.456 83.9375 666.053C84.2799 666.885 84.6223 667.716 84.9751 668.573C86.9357 673.564 88.4085 678.461 89.582 683.752C92.5315 697.749 92.5315 697.749 100.953 708.055C105.765 711.191 110.768 713.726 116 715.867C116.17 715.103 116.34 714.339 116.516 713.552C116.758 712.551 117 711.549 117.25 710.517C117.482 709.524 117.714 708.531 117.953 707.508C119.178 704.281 120.311 703.176 123 701.416C125.75 700.721 125.75 700.721 129 701.416C135.25 705.877 139.28 712.2 143 719.201C143.489 720.12 143.977 721.038 144.48 721.985C148 728.812 148 728.812 148 731.429C148.701 730.718 149.402 730.008 150.125 729.275C153.402 726.662 154.975 725.871 159 725.871C165.261 727.991 169.268 732.27 173 738.099C173.33 738.832 173.66 739.566 174 740.322C180.689 739.669 187.264 738.695 193.875 737.399C194.766 737.228 195.657 737.057 196.575 736.881C199.384 736.341 202.192 735.796 205 735.25C207.837 734.701 210.673 734.153 213.51 733.607C215.267 733.269 217.023 732.929 218.779 732.587C224.777 731.429 224.777 731.429 227 731.429C226.67 730.329 226.34 729.228 226 728.094C225.51 721.904 225.28 716.509 227.625 710.795C231.497 706.378 234.932 704.587 240.438 704.264C244.995 704.477 248.529 705.872 252 709.197C258 716.663 258 716.663 258 720.313C261.873 717.594 265.438 714.626 269 711.42C272.562 708.214 276.127 705.247 280 702.528C279.481 701.854 278.961 701.181 278.426 700.487C271.953 691.842 266 683.043 266 671.403C267.151 667.137 268.468 664.342 271 660.912C276.129 657.943 281.605 658.136 287.141 659.831C294.146 663.266 300.789 669.939 305 676.961C305.412 676.09 305.825 675.218 306.25 674.321C308.112 671.216 308.806 670.166 312 669.18C315.562 669.249 315.562 669.249 319 670.291C322.669 674.642 322.676 680.154 323 685.854C323.932 685.558 324.864 685.263 325.824 684.959C335.687 681.898 345.68 678.932 356 679.184C355.723 678.513 355.446 677.843 355.16 677.152C354.798 676.264 354.436 675.375 354.062 674.46C353.703 673.583 353.343 672.706 352.973 671.802C351.048 666.614 350.81 662.099 350.75 656.466C350.724 655.023 350.698 653.58 350.672 652.093C351.083 647.043 352.607 644.387 355.438 640.556C360.375 636.165 367.266 638.331 372.152 641.811Z" fill="#FED261"/>
<path d="M67 640.278C76.0705 644.689 80.0392 656.572 83.9375 666.053C84.2799 666.885 84.6223 667.716 84.9751 668.573C86.9357 673.564 88.4085 678.461 89.582 683.752C92.5315 697.749 92.5315 697.749 100.953 708.055C105.765 711.191 110.768 713.726 116 715.867C116.17 715.103 116.34 714.339 116.516 713.552C116.758 712.551 117 711.549 117.25 710.517C117.482 709.524 117.714 708.531 117.953 707.508C119.178 704.281 120.311 703.176 123 701.416C125.75 700.721 125.75 700.721 129 701.416C135.25 705.877 139.28 712.2 143 719.201C143.489 720.12 143.977 721.038 144.48 721.985C148 728.812 148 728.812 148 731.429C148.701 730.718 149.402 730.008 150.125 729.275C153.402 726.662 154.975 725.871 159 725.871C165.261 727.991 169.268 732.27 173 738.099C173.33 738.832 173.66 739.566 174 740.322C180.672 739.677 187.217 738.689 193.805 737.36C195.622 737.004 197.44 736.648 199.258 736.292C202.083 735.735 204.907 735.174 207.73 734.609C210.483 734.059 213.237 733.52 215.992 732.983C217.259 732.725 217.259 732.725 218.552 732.461C219.34 732.309 220.129 732.156 220.941 731.999C221.63 731.862 222.32 731.725 223.03 731.583C225.293 731.406 226.877 731.646 229 732.541C230.52 735.489 230.52 735.489 231.812 739.141C232.472 740.944 232.472 740.944 233.145 742.784C234 745.88 234 745.88 233 748.103C232.484 747.713 231.969 747.323 231.438 746.922C227.892 745.406 225.647 745.924 222 746.991C218.941 748.811 218.941 748.811 217 752.549C216.34 757.318 215.68 762.087 215 767C144.05 767 73.1 767 0 767C0 733.252 0 699.504 0 664.733C4.29 665.467 8.58 666.201 13 666.957C13.0928 664.928 13.0928 664.928 13.1875 662.858C13.621 659.24 14.1003 657.897 16 654.729C19.5076 652.13 21.5801 651.6 25.7344 651.928C30.0282 653.023 32.3695 655.308 35 659.175C42 672.659 42 672.659 42 676.961C42.6265 677.189 43.253 677.417 43.8984 677.651C44.7157 677.951 45.533 678.25 46.375 678.559C47.1871 678.855 47.9992 679.152 48.8359 679.458C51 680.296 51 680.296 53 681.407C52.8402 680.496 52.6803 679.585 52.5156 678.646C51.1013 667.926 50.4324 654.614 55 644.725C58.6074 640.046 61.5744 639.432 67 640.278Z" fill="#FED261"/>
<path d="M1243 494.659C1249.37 495.053 1249.37 495.053 1251.65 497.651C1255.43 504.845 1256.16 516.616 1254.55 524.72C1254.08 526.573 1253.55 528.405 1253 530.23C1253.78 529.868 1254.55 529.505 1255.35 529.132C1256.97 528.403 1256.97 528.403 1258.62 527.66C1259.67 527.183 1260.71 526.706 1261.79 526.214C1267.72 524.043 1273.89 522.792 1280 521.338C1280 602.406 1280 683.475 1280 767C1226.51 767.172 1226.51 767.172 1171.94 767.347C1155.04 767.423 1155.04 767.423 1137.8 767.501C1124.06 767.526 1124.06 767.526 1117.63 767.53C1113.13 767.536 1108.63 767.557 1104.14 767.587C1098.4 767.625 1092.66 767.636 1086.93 767.628C1084.82 767.63 1082.72 767.641 1080.61 767.663C1077.77 767.69 1074.92 767.684 1072.08 767.668C1070.84 767.693 1070.84 767.693 1069.58 767.717C1063.56 767.631 1060.56 765.824 1056 761.442C1054.48 758.052 1054.76 755.17 1055 751.438C1056.21 749.54 1056.21 749.54 1058 748.103C1060.34 747.738 1060.34 747.738 1062.94 747.825C1064.22 747.851 1064.22 747.851 1065.53 747.877C1067.8 748.084 1069.82 748.516 1072 749.214C1071.56 748.663 1071.13 748.111 1070.68 747.543C1069.43 745.964 1068.19 744.383 1066.95 742.801C1065.73 741.247 1064.5 739.698 1063.27 738.155C1062.75 737.494 1062.23 736.834 1061.69 736.153C1061.22 735.563 1060.75 734.973 1060.26 734.364C1058.29 731.516 1057.13 728.922 1056.56 725.385C1057.22 721.075 1058.89 719.551 1062 716.978C1066.68 716.328 1069.74 717.182 1074 719.201C1073.71 718.194 1073.42 717.187 1073.12 716.149C1068.19 698.142 1068.19 698.142 1071.31 690.369C1073 688.077 1073 688.077 1076 685.854C1083.59 686.172 1087.84 689.838 1092.88 695.788C1097.67 701.961 1101.33 708.833 1105 715.867C1105.46 716.742 1105.92 717.618 1106.39 718.52C1107.27 720.221 1108.14 721.933 1109 723.648C1109.42 723.023 1109.84 722.398 1110.27 721.755C1120.85 706.657 1133.52 692.315 1147.3 680.808C1147.86 680.272 1148.42 679.736 1149 679.184C1149 678.45 1149 677.717 1149 676.961C1147.45 675.467 1147.45 675.467 1145.44 673.973C1135.55 665.897 1126.98 654.506 1123 641.39C1122.54 637.282 1122.77 635.243 1124.44 631.524C1127.57 628.634 1129.28 628.089 1133.3 628.333C1142.18 631.06 1149.96 639.609 1156 646.948C1155.83 645.847 1155.67 644.747 1155.5 643.613C1154.07 631.695 1154.07 631.695 1157.19 626.939C1160 624.716 1160 624.716 1162.5 624.021C1168.1 625.579 1170.5 631.007 1173.31 636.179C1174.22 637.911 1175.11 639.647 1176 641.39C1176.18 640.18 1176.36 638.971 1176.55 637.725C1178.74 623.406 1181.28 610.19 1186.79 596.961C1188.25 593.507 1188.25 593.507 1188 589.145C1186.6 585.877 1185.09 582.732 1183.49 579.581C1181.18 574.778 1180.52 571.215 1181 565.801C1182.56 562.536 1182.56 562.536 1185 560.243C1189.62 559.257 1192.32 560.195 1196.19 562.884C1196.82 563.374 1197.45 563.864 1198.11 564.369C1200.01 565.806 1201.94 566.904 1204 568.025C1204.66 567.293 1204.66 567.293 1205.33 566.547C1210.89 560.37 1216.44 554.193 1222 548.016C1221.15 546.984 1220.31 545.953 1219.44 544.89C1210.38 533.088 1203.39 520.253 1203.53 504.494C1204.06 500.954 1204.67 499.349 1207 496.883C1211.23 495.664 1215.08 496.416 1219 498.411C1224.88 504.131 1230.15 510.412 1234 518.003C1234.24 516.957 1234.48 515.911 1234.73 514.833C1235.07 513.449 1235.4 512.065 1235.75 510.639C1236.07 509.272 1236.4 507.905 1236.73 506.496C1238.13 502.011 1239.95 498.055 1243 494.659Z" fill="#FAAA4F"/>
<path d="M796 669.18C802.911 674.363 807.843 681.243 812 689.188C812.459 688.104 812.918 687.019 813.391 685.901C814.01 684.473 814.63 683.044 815.25 681.616C815.55 680.901 815.851 680.187 816.16 679.451C817.936 675.399 819.408 672.508 823 670.291C825.938 669.736 825.938 669.736 829 670.291C832.102 673.126 833.726 674.934 835 679.184C835.686 687.863 834.408 695.403 832 703.639C833.258 703.748 834.516 703.857 835.812 703.969C852.954 705.579 868.047 709.904 884 716.978C884.062 715.557 884.124 714.135 884.188 712.671C884.956 705.05 887.753 698.548 892.438 692.94C895.627 691.037 897.424 690.832 901 691.412C905.295 693.042 906.695 695.79 908.688 700.096C910.391 704.162 911.876 708.216 913 712.532C913.471 711.916 913.941 711.3 914.426 710.665C915.36 709.457 915.36 709.457 916.312 708.224C916.927 707.425 917.542 706.625 918.176 705.802C920.588 702.943 922.282 701.522 925.812 700.999C929.978 701.544 931.833 702.801 935 705.862C938.254 711.465 939.999 717.118 940.316 723.769C940.355 724.526 940.393 725.282 940.432 726.061C940.475 727.007 940.518 727.953 940.562 728.928C940.779 733.467 940.779 733.467 941 738.099C948.26 742.134 955.52 746.169 963 750.326C963 747.758 963 745.191 963 742.545C964.372 736.873 966.338 730.15 971 726.983C974.182 726.477 975.985 726.203 979 726.983C982.241 729.802 984.574 732.663 986 736.987C986 738.087 986 739.188 986 740.322C987.237 739.221 987.237 739.221 988.5 738.099C992.459 735.175 995.314 735.297 1000 735.875C1003.64 737.675 1006.2 739.664 1008 743.657C1009.23 751.623 1006.89 758.669 1004 765.888C1003 767 1003 767 1001 767.138C1000.11 767.138 999.218 767.137 998.301 767.137C996.767 767.14 996.767 767.14 995.202 767.144C993.496 767.139 993.497 767.139 991.756 767.134C990.559 767.135 989.362 767.136 988.128 767.137C984.79 767.138 981.451 767.135 978.113 767.129C974.518 767.124 970.924 767.126 967.33 767.127C961.097 767.127 954.864 767.124 948.632 767.118C939.62 767.109 930.609 767.106 921.598 767.104C906.979 767.102 892.36 767.094 877.741 767.084C863.537 767.074 849.333 767.066 835.128 767.061C834.253 767.061 833.378 767.061 832.477 767.06C828.088 767.059 823.699 767.057 819.31 767.056C782.873 767.044 746.437 767.025 710 767C709.807 765.39 709.622 763.778 709.442 762.165C709.338 761.268 709.234 760.37 709.128 759.446C709 756.996 709 756.996 709.934 754.317C713.845 749.54 713.845 749.54 716.973 748.659C721.263 748.512 725.017 749.667 729 751.438C728.841 750.806 728.683 750.174 728.52 749.523C727.364 743.894 727.195 738.815 729.5 733.583C732.29 731.179 734.341 730.443 737.895 730.643C742.106 732.215 744.499 736.429 747 740.322C747.908 739.428 748.815 738.533 749.75 737.612C759.658 728.272 769.094 721.49 781 715.867C780.679 714.654 780.358 713.442 780.027 712.193C779.029 708.202 778.441 705.502 779 701.416C781.5 698.22 781.5 698.22 784 695.858C783.783 695.172 783.567 694.485 783.344 693.778C781.478 687.469 779.901 681.397 781 674.738C784.952 667.709 789.075 666.727 796 669.18Z" fill="#FAAA4F"/>
<path d="M348 710.309C350.971 711.542 353.037 713.08 355 715.867C355.867 720.277 355.662 724.51 355.438 728.997C355.406 730.192 355.374 731.386 355.342 732.617C355.259 735.559 355.145 738.494 355 741.433C357.564 741.554 360.123 741.642 362.688 741.711C363.409 741.749 364.13 741.786 364.873 741.824C369.969 741.928 372.146 740.95 376 736.987C379.617 736.228 381.864 736.254 385.086 738.333C388.678 741.258 391.976 744.462 395 748.103C395.619 747.209 396.238 746.315 396.875 745.393C399.102 742.409 399.827 741.595 403.207 741.129C410.221 740.825 410.221 740.825 413.938 743.726C417.158 748.825 419 752.94 419 759.219C419.496 758.75 419.993 758.282 420.504 757.799C424.861 753.893 428.152 751.188 434 751.438C436.438 752.966 436.438 752.966 438 755.884C438.371 759.259 438.376 762.513 438 765.888C436.161 767.932 433.199 767.14 430.736 767.141C430.075 767.143 429.413 767.145 428.731 767.146C426.498 767.151 424.265 767.147 422.031 767.144C420.437 767.145 418.842 767.147 417.248 767.15C412.905 767.155 408.562 767.153 404.219 767.149C399.684 767.147 395.15 767.149 390.615 767.151C382.999 767.153 375.382 767.15 367.766 767.145C358.947 767.139 350.128 767.141 341.309 767.147C333.752 767.152 326.194 767.153 318.637 767.15C314.117 767.148 309.597 767.148 305.077 767.152C300.829 767.155 296.58 767.153 292.332 767.146C290.768 767.145 289.204 767.145 287.641 767.147C285.515 767.15 283.389 767.147 281.264 767.141C280.071 767.141 278.879 767.14 277.65 767.14C275 767 275 767 274 765.888C273.34 759.829 273.056 754.286 276.312 749.145C279.291 745.526 280.866 743.85 285.25 743.101C290.231 743.839 292.66 746.299 296 750.326C296.66 751.427 297.32 752.527 298 753.661C303.142 751.456 308.069 748.791 313.039 746.149C316 744.768 316 744.768 319 744.768C318.856 744.136 318.711 743.504 318.562 742.853C317.406 737.506 316.332 732.497 317 726.983C319.062 723.648 319.062 723.648 322 721.425C326.02 721.5 328.118 721.555 331 724.759C331.398 723.903 331.797 723.046 332.207 722.163C332.737 721.048 333.267 719.933 333.812 718.785C334.335 717.676 334.857 716.566 335.395 715.424C338.496 709.837 342.503 709.279 348 710.309Z" fill="#FAAA4F"/>
<path d="M21 695.858C28.5575 700.198 32.0566 709.692 35 718.09C35.3364 720.279 35.6148 722.48 35.8125 724.69C36.2542 728.689 36.6692 729.965 39.332 732.801C41.8282 734.742 44.3218 736.489 47 738.099C47.0413 736.861 47.0825 735.623 47.125 734.347C47.8065 728.108 50.6584 723.061 54 718.09C57.6945 715.352 60.7131 714.99 65 715.867C70.0914 719.766 71.6637 724.978 73 731.429C73.4688 734.774 73.7588 738.054 74 741.433C75.0312 740.7 76.0625 739.966 77.125 739.21C80.5733 737.042 82.9885 736.194 87 736.987C90.6444 740.25 92.8378 743.351 93.4375 748.589C93 753.661 93 753.661 88 767C58.96 767 29.92 767 0 767C0 720.313 0 720.313 1 719.201C3.65463 718.696 6.32189 718.421 9 718.09C8.67 717.173 8.34 716.256 8 715.311C6.86255 710.886 6.17737 707.082 7 702.528C10.6478 695.548 14.0187 693.95 21 695.858Z" fill="#FAAA4F"/>
<path d="M664 711.42C671.462 716.583 676.142 725.074 680 733.652C680.619 732.598 681.238 731.543 681.875 730.456C684 726.983 684 726.983 686 724.759C688.875 724.273 688.875 724.273 692 724.759C696.192 729.031 697.741 734.412 698.174 740.583C698.232 743.278 698.224 745.963 698.188 748.659C698.187 749.566 698.186 750.473 698.186 751.407C698.15 756.802 697.698 761.568 697 767C681.49 767 665.98 767 650 767C647.719 761.93 647.768 760.155 649 754.772C650.625 752.549 650.625 752.549 653 751.438C656.75 751.785 656.75 751.785 660 752.549C659.662 751.677 659.325 750.804 658.977 749.905C654.745 738.825 651.601 729.212 653 716.978C655.941 711.883 658.604 710.009 664 711.42Z" fill="#FAAA4F"/>
<path d="M134.438 738.654C138.315 739.259 140.017 739.752 143 742.545C145.763 746.738 147.946 751.224 150 755.884C150.66 754.784 151.32 753.683 152 752.549C153.625 750.372 154.53 749.355 157.008 748.615C159.125 748.52 159.125 748.52 163 749.214C166 753.661 166 753.661 166 767C153.79 767 141.58 767 129 767C127.091 761.695 126.675 758.695 126.625 753.105C126.597 751.672 126.568 750.239 126.539 748.763C127.229 742.783 128.938 739.544 134.438 738.654Z" fill="#FAAA4F"/>
<path d="M618.852 737.521C622.388 738.472 623.879 740.466 626 743.657C630.33 751.908 630 757.083 630 767C618.12 767 606.24 767 594 767C592.458 763.573 592.703 760.765 593 756.996C594.562 754.842 594.562 754.842 597 753.661C603.152 753.189 603.152 753.189 606 754.772C606.021 753.805 606.021 753.805 606.043 752.818C606.289 748.334 606.646 744.558 609 740.808C612.54 737.611 614.397 737.167 618.852 737.521Z" fill="#FAAA4F"/>
</g>
<path d="M-1 873.993V751L22.944 763.98C34.0845 763.98 34.0845 751 45.3914 751C56.532 751 56.532 763.98 67.8388 763.98C78.9794 763.98 78.9794 751 90.2863 751C101.427 751 101.427 763.98 112.734 763.98C123.874 763.98 123.874 751 135.181 751C146.322 751 146.322 763.98 157.629 763.98C168.769 763.98 168.769 751 180.076 751C191.217 751 191.217 763.98 202.523 763.98C213.664 763.98 213.664 751 224.971 751C236.111 751 236.111 763.98 247.418 763.98C258.559 763.98 258.559 751 269.866 751C281.006 751 281.006 763.98 292.313 763.98C303.454 763.98 303.454 751 314.761 751C326.067 751 325.901 763.98 337.208 763.98C348.349 763.98 348.349 751 359.655 751C370.796 751 370.796 763.98 382.103 763.98C393.243 763.98 393.243 751 404.55 751C415.691 751 415.691 763.98 426.998 763.98C438.138 763.98 438.138 751 449.445 751C460.586 751 460.586 763.98 471.893 763.98C483.033 763.98 483.033 751 494.34 751C505.481 751 505.481 763.98 516.787 763.98C527.928 763.98 527.928 751 539.235 751C550.375 751 550.375 763.98 561.682 763.98C572.823 763.98 572.823 751 584.13 751C595.27 751 595.27 763.98 606.577 763.98C617.718 763.98 617.718 751 629.025 751C640.331 751 640.165 763.98 651.472 763.98C662.779 763.98 662.613 751 673.919 751C685.226 751 685.06 763.98 696.367 763.98C707.507 763.98 707.507 751 718.814 751C729.955 751 729.955 763.98 741.262 763.98C752.402 763.98 752.402 751 763.709 751C774.85 751 774.85 763.98 786.157 763.98C797.297 763.98 797.297 751 808.604 751C819.745 751 819.745 763.98 831.051 763.98C842.192 763.98 842.192 751 853.499 751C864.639 751 864.639 763.98 875.946 763.98C887.087 763.98 887.087 751 898.394 751C909.534 751 909.534 763.98 920.841 763.98C931.982 763.98 931.982 751 943.289 751C954.429 751 954.429 763.98 965.736 763.98C977.043 763.98 976.877 751 988.183 751C999.324 751 999.324 763.98 1010.63 763.98C1021.77 763.98 1021.77 751 1033.08 751C1044.22 751 1044.22 763.98 1055.53 763.98C1066.67 763.98 1066.67 751 1077.97 751C1089.11 751 1089.11 763.98 1100.42 763.98C1111.56 763.98 1111.56 751 1122.87 751C1134.01 751 1134.01 763.98 1145.32 763.98C1156.46 763.98 1156.46 751 1167.76 751C1178.9 751 1178.9 763.98 1190.21 763.98C1201.35 763.98 1201.35 751 1212.66 751C1223.8 751 1223.8 763.98 1235.11 763.98C1246.25 763.98 1246.25 751 1257.55 751C1268.69 751 1268.69 763.98 1280 763.98V873.993H-1Z" fill="white"/>
<defs>
<clipPath id="clip0_224_3">
<rect width="1280" height="767" fill="white"/>
</clipPath>
</defs>
</svg>
