<svg width="1280" height="96" viewBox="0 0 1280 96" fill="none" xmlns="http://www.w3.org/2000/svg">
<path d="M-1 95.9999V-5.85918e-05L22.944 10.1316C34.0845 10.1316 34.0845 -5.85918e-05 45.3914 -5.85918e-05C56.532 -5.85918e-05 56.532 10.1316 67.8388 10.1316C78.9794 10.1316 78.9794 -5.85918e-05 90.2863 -5.85918e-05C101.427 -5.85918e-05 101.427 10.1316 112.734 10.1316C123.874 10.1316 123.874 -5.85918e-05 135.181 -5.85918e-05C146.322 -5.85918e-05 146.322 10.1316 157.629 10.1316C168.769 10.1316 168.769 -5.85918e-05 180.076 -5.85918e-05C191.217 -5.85918e-05 191.217 10.1316 202.523 10.1316C213.664 10.1316 213.664 -5.85918e-05 224.971 -5.85918e-05C236.111 -5.85918e-05 236.111 10.1316 247.418 10.1316C258.559 10.1316 258.559 -5.85918e-05 269.866 -5.85918e-05C281.006 -5.85918e-05 281.006 10.1316 292.313 10.1316C303.454 10.1316 303.454 -5.85918e-05 314.761 -5.85918e-05C326.067 -5.85918e-05 325.901 10.1316 337.208 10.1316C348.349 10.1316 348.349 -5.85918e-05 359.655 -5.85918e-05C370.796 -5.85918e-05 370.796 10.1316 382.103 10.1316C393.243 10.1316 393.243 -5.85918e-05 404.55 -5.85918e-05C415.691 -5.85918e-05 415.691 10.1316 426.998 10.1316C438.138 10.1316 438.138 -5.85918e-05 449.445 -5.85918e-05C460.586 -5.85918e-05 460.586 10.1316 471.893 10.1316C483.033 10.1316 483.033 -5.85918e-05 494.34 -5.85918e-05C505.481 -5.85918e-05 505.481 10.1316 516.787 10.1316C527.928 10.1316 527.928 -5.85918e-05 539.235 -5.85918e-05C550.375 -5.85918e-05 550.375 10.1316 561.682 10.1316C572.823 10.1316 572.823 -5.85918e-05 584.13 -5.85918e-05C595.27 -5.85918e-05 595.27 10.1316 606.577 10.1316C617.718 10.1316 617.718 -5.85918e-05 629.025 -5.85918e-05C640.331 -5.85918e-05 640.165 10.1316 651.472 10.1316C662.779 10.1316 662.613 -5.85918e-05 673.919 -5.85918e-05C685.226 -5.85918e-05 685.06 10.1316 696.367 10.1316C707.507 10.1316 707.507 -5.85918e-05 718.814 -5.85918e-05C729.955 -5.85918e-05 729.955 10.1316 741.262 10.1316C752.402 10.1316 752.402 -5.85918e-05 763.709 -5.85918e-05C774.85 -5.85918e-05 774.85 10.1316 786.157 10.1316C797.297 10.1316 797.297 -5.85918e-05 808.604 -5.85918e-05C819.745 -5.85918e-05 819.745 10.1316 831.051 10.1316C842.192 10.1316 842.192 -5.85918e-05 853.499 -5.85918e-05C864.639 -5.85918e-05 864.639 10.1316 875.946 10.1316C887.087 10.1316 887.087 -5.85918e-05 898.394 -5.85918e-05C909.534 -5.85918e-05 909.534 10.1316 920.841 10.1316C931.982 10.1316 931.982 -5.85918e-05 943.289 -5.85918e-05C954.429 -5.85918e-05 954.429 10.1316 965.736 10.1316C977.043 10.1316 976.877 -5.85918e-05 988.183 -5.85918e-05C999.324 -5.85918e-05 999.324 10.1316 1010.63 10.1316C1021.77 10.1316 1021.77 -5.85918e-05 1033.08 -5.85918e-05C1044.22 -5.85918e-05 1044.22 10.1316 1055.53 10.1316C1066.67 10.1316 1066.67 -5.85918e-05 1077.97 -5.85918e-05C1089.11 -5.85918e-05 1089.11 10.1316 1100.42 10.1316C1111.56 10.1316 1111.56 -5.85918e-05 1122.87 -5.85918e-05C1134.01 -5.85918e-05 1134.01 10.1316 1145.32 10.1316C1156.46 10.1316 1156.46 -5.85918e-05 1167.76 -5.85918e-05C1178.9 -5.85918e-05 1178.9 10.1316 1190.21 10.1316C1201.35 10.1316 1201.35 -5.85918e-05 1212.66 -5.85918e-05C1223.8 -5.85918e-05 1223.8 10.1316 1235.11 10.1316C1246.25 10.1316 1246.25 -5.85918e-05 1257.55 -5.85918e-05C1268.69 -5.85918e-05 1268.69 10.1316 1280 10.1316V95.9999H-1Z" fill="white"/>
</svg>
