<svg width="1280" height="150" viewBox="0 0 1280 150" fill="none" xmlns="http://www.w3.org/2000/svg">
<path d="M0 6.68618e-05V150L22.944 139.995C34.0845 139.995 34.0845 149.993 45.3914 149.993C56.532 149.993 56.532 139.995 67.8388 139.995C78.9794 139.995 78.9794 149.993 90.2863 149.993C101.427 149.993 101.427 139.995 112.734 139.995C123.874 139.995 123.874 149.993 135.181 149.993C146.322 149.993 146.322 139.995 157.629 139.995C168.769 139.995 168.769 149.993 180.076 149.993C191.217 149.993 191.217 139.995 202.523 139.995C213.664 139.995 213.664 149.993 224.971 149.993C236.111 149.993 236.111 139.995 247.418 139.995C258.559 139.995 258.559 149.993 269.866 149.993C281.006 149.993 281.006 139.995 292.313 139.995C303.454 139.995 303.454 149.993 314.761 149.993C326.067 149.993 325.901 139.995 337.208 139.995C348.349 139.995 348.349 149.993 359.655 149.993C370.796 149.993 370.796 139.995 382.103 139.995C393.243 139.995 393.243 149.993 404.55 149.993C415.691 149.993 415.691 139.995 426.998 139.995C438.138 139.995 438.138 149.993 449.445 149.993C460.586 149.993 460.586 139.995 471.893 139.995C483.033 139.995 483.033 149.993 494.34 149.993C505.481 149.993 505.481 139.995 516.787 139.995C527.928 139.995 527.928 149.993 539.235 149.993C550.375 149.993 550.375 139.995 561.682 139.995C572.823 139.995 572.823 149.993 584.13 149.993C595.27 149.993 595.27 139.995 606.577 139.995C617.718 139.995 617.718 149.993 629.025 149.993C640.331 149.993 640.165 139.995 651.472 139.995C662.779 139.995 662.613 149.993 673.919 149.993C685.226 149.993 685.06 139.995 696.367 139.995C707.507 139.995 707.507 149.993 718.814 149.993C729.955 149.993 729.955 139.995 741.262 139.995C752.402 139.995 752.402 149.993 763.709 149.993C774.85 149.993 774.85 139.995 786.157 139.995C797.297 139.995 797.297 149.993 808.604 149.993C819.745 149.993 819.745 139.995 831.051 139.995C842.192 139.995 842.192 149.993 853.499 149.993C864.639 149.993 864.639 139.995 875.946 139.995C887.087 139.995 887.087 149.993 898.394 149.993C909.534 149.993 909.534 139.995 920.841 139.995C931.982 139.995 931.982 149.993 943.289 149.993C954.429 149.993 954.429 139.995 965.736 139.995C977.043 139.995 976.877 149.993 988.183 149.993C999.324 149.993 999.324 139.995 1010.63 139.995C1021.77 139.995 1021.77 149.993 1033.08 149.993C1044.22 149.993 1044.22 139.995 1055.53 139.995C1066.67 139.995 1066.67 149.993 1077.97 149.993C1089.11 149.993 1089.11 139.995 1100.42 139.995C1111.56 139.995 1111.56 149.993 1122.87 149.993C1134.01 149.993 1134.01 139.995 1145.32 139.995C1156.46 139.995 1156.46 149.993 1167.76 149.993C1178.9 149.993 1178.9 139.995 1190.21 139.995C1201.35 139.995 1201.35 149.993 1212.66 149.993C1223.8 149.993 1223.8 139.995 1235.11 139.995C1246.25 139.995 1246.25 149.993 1257.55 149.993C1268.69 149.993 1268.69 139.995 1280 139.995V6.68618e-05H0Z" fill="white"/>
</svg>
