<svg width="573" height="563" viewBox="0 0 573 563" fill="none" xmlns="http://www.w3.org/2000/svg">
<path d="M184 184C184 234.81 142.81 276 92 276C41.1898 276 0 234.81 0 184C0 133.19 41.1898 92 92 92C142.81 92 184 133.19 184 184Z" fill="#FFEDBF"/>
<path d="M554 482.5C554 526.959 517.959 563 473.5 563C429.041 563 393 526.959 393 482.5C393 438.041 429.041 402 473.5 402C517.959 402 554 438.041 554 482.5Z" fill="#FFEDBF"/>
<path d="M205 46C205 71.4051 184.405 92 159 92C133.595 92 113 71.4051 113 46C113 20.5949 133.595 0 159 0C184.405 0 205 20.5949 205 46Z" fill="#FFEDBF"/>
<path d="M285.514 7.91474C288.607 10.3895 289.502 12.7544 290.153 16.5483C290.539 21.5305 289.103 25.8376 287.393 30.4677C288.323 30.1576 289.253 29.8475 290.212 29.528C295.478 28.0594 299.738 27.6346 304.716 30.3502C307.133 32.3549 307.922 33.0475 308.287 36.0949C308.415 40.1074 308.441 42.1056 306.184 45.5617C305.564 46.1625 304.944 46.7634 304.305 47.3824C304.809 47.5774 305.313 47.7724 305.832 47.9734C350.301 65.4565 350.301 65.4565 360.231 84.9633C370.261 108.679 365.122 136.092 355.981 159.207C355.393 160.398 354.804 161.587 354.212 162.775C352.844 165.686 352.844 165.686 354.021 168.186C354.552 168.906 355.082 169.625 355.629 170.366C357.827 173.527 359.036 175.748 359.681 179.529C360.653 182.776 361.541 183.588 364.426 185.508C366.846 186.81 369.315 188.002 371.789 189.197C390.741 198.395 407.175 213.829 421.751 228.746C423.884 223.253 425.677 217.734 427.319 212.077C427.699 210.78 427.699 210.78 428.088 209.456C428.895 206.705 429.698 203.953 430.501 201.2C433.546 190.773 436.595 180.347 439.819 169.974C440.04 169.252 440.261 168.53 440.489 167.786C443.535 158.094 443.535 158.094 447.119 154.509C452.831 153.99 452.831 153.99 455.458 155.566C456.882 157.94 457.05 160.251 457.455 162.966C458.534 163.115 459.613 163.264 460.725 163.418C477.62 165.895 491.883 170.536 502.554 184.579C504.548 188.078 506.177 191.695 507.78 195.386C514.009 209.601 522.542 220.021 537.318 225.926C546.41 229.348 553.205 229.581 562.404 226.562C565.103 225.769 567.412 225.578 570.203 225.926C572.082 227.806 572.082 227.806 572.341 230.718C572.047 234.873 571.097 238.352 569.814 242.291C569.328 243.843 568.843 245.395 568.358 246.948C567.975 248.158 567.975 248.158 567.585 249.392C563.219 263.213 559.394 276.915 556.85 291.192C556.663 292.221 556.475 293.249 556.282 294.308C556.132 295.196 555.983 296.084 555.828 296.998C555.087 299.504 554.409 300.466 552.351 302.043C550.699 302.85 550.699 302.85 548.879 303.485C548.206 303.722 547.532 303.959 546.839 304.203C546.138 304.44 545.438 304.677 544.717 304.921C544.039 305.161 543.361 305.401 542.662 305.649C522.81 312.521 504.987 310.363 486.346 301.338C479.599 297.903 473.613 293.734 467.79 288.887C466.948 288.188 466.106 287.489 465.239 286.769C460.048 282.279 455.943 277.439 451.817 271.972C452.044 272.481 452.271 272.991 452.504 273.515C459.113 288.441 464.783 303.159 468.495 319.075C468.681 319.869 468.868 320.664 469.061 321.483C472.107 335.24 472.843 348.796 472.781 362.83C472.779 363.658 472.777 364.486 472.775 365.339C472.727 377.646 472.332 389.593 469.669 401.652C469.389 402.971 469.389 402.971 469.103 404.316C462.856 433.146 451.07 459.973 433.026 483.406C432.362 484.285 431.698 485.165 431.015 486.071C426.105 492.399 420.665 498.257 415.174 504.079C414.525 504.769 413.876 505.458 413.207 506.168C408.276 511.252 402.902 515.702 397.322 520.055C396.81 520.456 396.298 520.857 395.77 521.27C386.183 528.718 376.064 534.981 365.377 540.728C364.736 541.073 364.095 541.418 363.435 541.774C339.223 554.541 310.434 562.369 283.003 562.532C282.255 562.539 281.507 562.545 280.736 562.552C278.335 562.568 275.935 562.575 273.534 562.576C272.713 562.577 271.892 562.577 271.046 562.578C258.738 562.563 246.849 562.105 234.777 559.522C233.983 559.361 233.188 559.2 232.37 559.033C192.866 550.896 159.528 531.685 130.485 504.079C129.495 503.164 129.495 503.164 128.485 502.229C122.51 496.531 117.593 489.98 112.633 483.406C112.228 482.875 111.823 482.344 111.406 481.797C104.597 472.824 99.0218 463.329 93.8417 453.335C93.5 452.678 93.1583 452.02 92.8063 451.342C85.588 437.243 80.6853 422.406 77.1057 406.996C76.831 405.821 76.831 405.821 76.5508 404.622C73.5435 390.915 72.8159 377.396 72.8776 363.417C72.8796 362.589 72.8817 361.761 72.8838 360.908C72.932 348.601 73.3275 336.654 75.9899 324.596C76.2699 323.276 76.2699 323.276 76.5556 321.931C82.8027 293.101 94.5894 266.274 112.633 242.841C113.297 241.962 113.961 241.082 114.644 240.176C119.554 233.848 124.994 227.99 130.485 222.168C131.134 221.478 131.783 220.789 132.452 220.079C140.933 211.336 150.883 204.159 160.551 196.796C160.401 196.091 160.251 195.386 160.096 194.659C158.729 187.43 159.421 178.681 163.652 172.44C164.044 171.892 164.435 171.343 164.838 170.778C166.375 167.89 166.219 166.838 165.337 163.612C164.628 161.737 163.865 159.891 163.087 158.043C154.731 138.084 150.102 112.483 157.263 91.6073C161.158 82.5605 168.46 74.7016 175.584 68.0559C176.34 67.2807 177.096 66.5054 177.874 65.7066C178.669 64.9314 179.463 64.1561 180.282 63.3574C180.991 62.6215 180.991 62.6215 181.713 61.8707C192.903 51.0461 207.74 47.4131 222.563 44.5633C223.764 44.3319 224.966 44.1005 226.203 43.8622C232.228 42.8318 238.065 42.4357 244.173 42.6839C244.311 42.1824 244.449 41.6809 244.591 41.1642C248.768 27.2858 257.966 16.7316 270.363 9.38303C275.531 6.79862 279.903 6.44984 285.514 7.91474Z" fill="#F9A94F"/>
<path d="M450.349 154.215C453.696 154.509 453.696 154.509 455.458 155.566C456.882 157.94 457.05 160.251 457.455 162.966C458.534 163.115 459.613 163.264 460.725 163.418C477.62 165.895 491.883 170.536 502.554 184.579C504.548 188.078 506.177 191.695 507.78 195.386C514.009 209.601 522.542 220.021 537.318 225.926C546.41 229.348 553.205 229.581 562.404 226.562C565.103 225.769 567.412 225.578 570.203 225.926C572.082 227.806 572.082 227.806 572.394 230.522C572.24 235.684 570.498 240.535 568.97 245.425C568.535 246.892 568.535 246.892 568.091 248.388C565.619 256.435 565.619 256.435 562.686 258.816C560.315 259.881 560.315 259.881 557.636 260.813C556.317 261.282 556.317 261.282 554.972 261.76C545.561 264.686 534.026 265.084 524.843 261.191C517.43 257.032 510.832 251.461 504.987 245.315C502.803 243.071 500.433 241.065 498.058 239.027C496.557 237.712 495.085 236.364 493.632 234.997C481.764 223.851 463.375 208.969 446.121 208.836C444.9 208.894 443.679 208.952 442.422 209.012C442.273 209.651 442.124 210.291 441.97 210.95C440.47 217.184 438.713 223.305 436.765 229.412C435.478 233.456 434.261 237.514 433.091 241.593C431.448 247.321 429.698 252.86 427.37 258.354C425.503 263.1 424.131 268.022 422.691 272.912C423.737 272.999 423.737 272.999 424.805 273.088C428.721 274.245 430.097 276.725 432.083 280.177C433.064 282.005 433.993 283.851 434.905 285.715C435.231 286.382 435.558 287.05 435.894 287.737C440.603 297.495 445.111 307.101 441.826 318.141C439.9 323.457 437.514 328.572 435.14 333.699C434.445 335.238 433.753 336.778 433.063 338.319C431.747 341.251 430.425 344.179 429.096 347.106C425.406 355.277 422.534 363.52 419.978 372.106C419.747 372.863 419.516 373.62 419.277 374.4C419.075 375.078 418.873 375.757 418.664 376.456C417.993 378.159 417.993 378.159 416.114 380.038C409.546 381.028 402.453 379.818 396.383 377.219C394.162 375.432 392.826 374.354 392.191 371.54C392.218 370.875 392.245 370.21 392.272 369.525C392.284 368.872 392.296 368.219 392.309 367.547C392.771 363.82 393.643 360.198 394.504 356.546C391.882 355.369 389.259 354.194 386.635 353.022C385.863 352.676 385.092 352.331 384.297 351.975C379.533 349.853 374.755 347.852 369.84 346.102C367.483 344.908 366.556 343.18 365.747 340.715C365.589 340.071 365.432 339.428 365.271 338.765C365.089 338.04 364.907 337.315 364.72 336.569C364.53 335.796 364.34 335.024 364.144 334.228C360.036 317.373 360.036 317.373 352.223 302.043C351.544 301.023 351.544 301.023 350.85 299.983C344.98 292.345 336.208 288.464 327.794 284.188C327.838 283.339 327.881 282.49 327.926 281.615C327.96 280.507 327.994 279.398 328.029 278.256C328.073 277.155 328.116 276.054 328.161 274.92C328.087 271.948 328.087 271.948 326.201 270.291C323.91 269.087 321.645 268.123 319.221 267.215C305.62 261.688 293.141 253.554 280.816 245.66C283.566 243.524 286.409 241.703 289.389 239.905C296.982 235.071 303.035 230.252 307.241 222.226C309.222 219.294 310.663 217.748 314.153 216.908C319.033 216.289 323.921 216.128 328.833 215.931C337.906 215.525 345.954 212.654 352.553 206.193C358.085 199.481 359.703 192.123 360.679 183.64C384.15 194.683 403.674 210.246 421.751 228.746C423.884 223.253 425.677 217.734 427.319 212.077C427.573 211.212 427.826 210.347 428.088 209.456C428.895 206.705 429.698 203.953 430.501 201.2C433.546 190.773 436.595 180.347 439.819 169.974C440.04 169.252 440.261 168.53 440.489 167.786C444.589 154.739 444.589 154.739 450.349 154.215Z" fill="#FDD161"/>
<path d="M222.386 135.362C229.635 139.919 233.83 146.008 238.172 153.294C243.802 162.688 252.222 173.587 263.228 176.735C266.821 177.364 269.124 177.206 272.595 176.005C276.635 171.78 278.084 166.575 279.876 161.087C280.826 161.397 281.775 161.707 282.754 162.026C290.898 164.052 299.767 164.409 307.124 160.147C308.054 159.682 308.054 159.682 309.003 159.207C309.045 159.776 309.087 160.344 309.131 160.929C309.33 163.528 309.548 166.125 309.766 168.722C309.832 169.616 309.898 170.51 309.966 171.431C310.393 176.341 310.84 180.403 313.701 184.579C316.89 185.908 316.89 185.908 320.278 185.519C323.751 182.984 324.385 179.929 325.152 175.887C326.196 168.489 326.519 161.027 326.855 153.569C330.121 152.132 331.805 151.48 335.278 152.541C340.844 155.526 345.917 158.424 350.344 162.966C350.844 163.479 351.344 163.991 351.86 164.519C358.586 171.88 361.056 179.244 360.936 189.124C360.232 197.273 356.299 203.566 350.344 209.012C339.066 217.851 325.56 217.717 311.822 217.469C311.607 218.132 311.393 218.794 311.172 219.477C309.701 222.697 307.691 225.069 305.303 227.63C304.619 228.368 304.619 228.368 303.92 229.122C297.384 235.984 289.455 241.71 280.816 245.66C280.196 245.66 279.576 245.66 278.937 245.66C279.014 246.687 279.092 247.715 279.172 248.773C279.16 255.244 276.95 261.334 272.888 266.334C267.672 270.405 263.343 272.41 256.71 272.28C252.868 271.742 250.504 270.129 247.931 267.273C244.046 261.451 242.333 255.35 241.354 248.479C240.708 248.536 240.063 248.593 239.398 248.652C228.094 247.941 218.044 237.926 210.935 230.038C208.43 226.998 206.555 223.764 204.711 220.288C203.824 220.332 202.938 220.375 202.024 220.42C190.222 220.752 180.199 218.683 170.886 210.891C164.265 204.44 160.021 198.034 159.377 188.691C159.584 176.454 165.365 168.163 173.716 159.853C175.584 158.268 175.584 158.268 177.463 158.268C177.737 159.638 178.011 161.008 178.285 162.379C178.459 163.234 178.632 164.089 178.81 164.97C179.153 166.705 179.48 168.442 179.787 170.183C180.616 174.769 181.532 178.686 184.04 182.7C187.318 184.886 188.642 184.973 192.496 184.579C195 183.506 195.953 182.422 197.077 179.954C198.757 175.268 199.563 170.731 200.013 165.785C201.176 165.824 202.338 165.863 203.536 165.903C207.717 165.9 207.717 165.9 211.288 163.906C215.177 158.061 214.246 152.222 213.914 145.521C213.889 144.665 213.864 143.809 213.839 142.928C213.801 142.152 213.763 141.375 213.725 140.576C214.106 138.534 214.106 138.534 215.826 136.908C219.92 134.511 219.92 134.511 222.386 135.362Z" fill="#FDD161"/>
<path d="M236.531 429.693C237.972 429.658 239.414 429.624 240.855 429.589C241.844 429.544 241.844 429.544 242.854 429.497C245.989 429.443 247.633 429.621 250.183 431.514C252.94 435.334 253.515 439.691 253.686 444.291C254.753 448.712 257.047 451.016 259.943 454.447C264.046 459.665 268.665 465.75 268.543 472.581C267.562 476.265 265.998 479.029 263.845 482.114C263.075 483.257 262.307 484.401 261.54 485.546C261.151 486.122 260.761 486.699 260.36 487.293C259.229 489.009 258.159 490.748 257.106 492.513C256.777 493.065 256.448 493.617 256.108 494.186C255.204 495.714 254.303 497.245 253.403 498.775C251.729 501.203 250.466 502.607 247.931 504.079C243.352 504.67 241.455 504.738 237.537 502.259C234.712 499.578 232.478 496.444 230.266 493.251C228.379 491.125 226.614 489.666 224.35 487.976C218.174 483.302 213.049 477.579 207.797 471.911C203.331 467.059 203.331 467.059 197.323 464.905C194.927 465.43 192.803 465.939 190.559 466.902C184.94 468.908 178.706 470.021 172.765 469.31C167.608 464.249 166.747 459.347 166.365 452.454C166.275 451.329 166.275 451.329 166.183 450.18C165.991 446.919 166.052 444.379 167.022 441.24C170.144 438.094 173.837 437.398 178.051 436.303C179.688 435.852 181.325 435.399 182.961 434.945C184.194 434.618 184.194 434.618 185.452 434.284C187.748 433.661 187.748 433.661 189.682 432.828C197.29 429.711 205.549 430.245 213.637 430.136C215.183 430.105 216.729 430.073 218.276 430.039C221.332 429.975 224.387 429.93 227.444 429.9C230.475 429.87 233.502 429.797 236.531 429.693Z" fill="#FDD160"/>
<path d="M162.43 197.735C163.674 199.56 163.674 199.56 164.955 202.023C170.219 211.135 177.043 215.015 186.859 218.409C187.45 218.618 188.041 218.828 188.65 219.044C190.814 219.462 190.814 219.462 193.803 219.044C197.808 218.667 200.758 218.571 204.711 219.348C207.333 221.87 208.784 224.389 210.524 227.575C216.132 237.619 226.234 243.461 236.656 247.54C233.881 249.779 231.151 251.27 227.888 252.697C226.423 253.34 226.423 253.34 224.929 253.996C223.38 254.667 223.38 254.667 221.799 255.351C220.219 256.041 220.219 256.041 218.607 256.746C211.801 259.705 204.964 262.544 198.031 265.189C195.384 266.305 193.037 267.611 190.617 269.153C191.082 274.27 191.082 274.27 191.557 279.49C190.174 280.191 188.79 280.891 187.404 281.587C186.111 282.24 184.82 282.897 183.531 283.559C179.291 285.711 175.017 287.663 170.626 289.489C158.252 294.763 150.287 298.95 144.582 311.355C143.293 314.039 141.75 316.532 140.192 319.066C126.381 339.733 126.381 339.733 122.029 363.123C123.419 365.704 123.419 365.704 124.847 367.822C124.417 374.477 118.521 380.142 113.738 384.373C113.257 384.745 112.776 385.117 112.281 385.5C108.556 388.605 107.155 391.68 106.647 396.498C106.626 397.656 106.606 398.814 106.585 400.007C106.132 410.36 101.826 417.736 96.6971 426.495C93.938 431.248 91.5354 436.172 89.1439 441.119C85.8419 437.496 84.6493 433.117 83.1541 428.55C82.8687 427.683 82.5832 426.815 82.2891 425.922C80.2878 419.673 78.5805 413.389 77.1057 406.996C76.9229 406.214 76.7402 405.431 76.5519 404.625C73.5418 390.917 72.8159 377.396 72.8776 363.417C72.8796 362.589 72.8817 361.761 72.8838 360.908C72.932 348.601 73.3275 336.654 75.9899 324.596C76.2699 323.276 76.2699 323.276 76.5556 321.931C82.8027 293.101 94.5894 266.274 112.633 242.841C113.297 241.962 113.961 241.082 114.644 240.176C119.554 233.848 124.994 227.99 130.485 222.168C131.134 221.478 131.783 220.789 132.452 220.079C137.382 214.997 142.775 210.563 148.337 206.193C148.837 205.797 149.338 205.402 149.854 204.995C151.377 203.799 152.909 202.615 154.444 201.435C155.364 200.727 156.285 200.018 157.233 199.288C159.611 197.735 159.611 197.735 162.43 197.735Z" fill="#4594FD"/>
<path d="M360.679 183.64C380.699 193.059 397.875 205.616 413.823 220.909C415.067 222.067 416.368 223.164 417.673 224.253C422.588 228.502 422.588 228.502 422.856 231.594C422.402 233.895 421.616 235.939 420.812 238.143C418.034 246.797 415.541 255.535 413.06 264.278C412.715 265.49 412.37 266.702 412.025 267.914C411.194 270.833 410.365 273.751 409.537 276.671C408.812 276.213 408.088 275.755 407.342 275.284C404.583 273.705 403.258 273.344 400.141 273.851C390.863 281.235 387.691 298.292 386.047 309.56C385.157 319.265 385.157 319.265 387.927 328.354C387.713 330.92 387.406 333.342 386.987 335.872C386.805 337.281 386.629 338.69 386.459 340.101C386.323 341.186 386.187 342.271 386.047 343.39C389.252 346.081 392.537 347.475 396.383 349.028C396.073 351.199 395.763 353.369 395.443 355.606C392.298 355.052 389.517 354.277 386.58 353.029C385.432 352.544 385.432 352.544 384.262 352.049C383.082 351.542 383.082 351.542 381.878 351.025C381.095 350.694 380.312 350.363 379.505 350.023C377.978 349.373 376.457 348.709 374.943 348.029C372.741 347.04 372.741 347.04 369.726 346.168C365.571 343.074 365.066 338.448 363.85 333.581C363.293 331.526 362.736 329.47 362.177 327.415C361.917 326.433 361.658 325.452 361.391 324.441C359.27 316.502 356.828 308.919 352.223 302.043C351.769 301.359 351.315 300.676 350.847 299.972C344.967 292.345 336.207 288.464 327.794 284.188C327.838 283.339 327.881 282.49 327.926 281.615C327.96 280.507 327.994 279.398 328.029 278.256C328.073 277.155 328.116 276.054 328.161 274.92C328.087 271.948 328.087 271.948 326.201 270.291C323.91 269.087 321.645 268.123 319.221 267.215C305.62 261.688 293.141 253.554 280.816 245.66C283.566 243.524 286.409 241.703 289.389 239.905C296.982 235.071 303.035 230.252 307.241 222.226C309.222 219.294 310.663 217.748 314.153 216.908C319.033 216.289 323.921 216.128 328.833 215.931C337.906 215.525 345.954 212.654 352.553 206.193C358.085 199.481 359.703 192.123 360.679 183.64Z" fill="#4594FD"/>
<path d="M429.268 251.298C438.214 254.461 447.528 262.69 451.913 271.15C452.508 272.64 453.063 274.146 453.59 275.661C454.414 277.937 455.303 280.089 456.299 282.29C466.143 304.214 472.539 328.547 472.679 352.684C472.685 353.453 472.692 354.222 472.699 355.014C472.912 386.965 472.912 386.966 469.669 401.652C469.482 402.531 469.296 403.41 469.103 404.316C462.842 433.213 451.002 459.855 433.026 483.406C432.003 479.877 432.356 478.103 433.554 474.596C438.53 459.142 442.322 443.441 445.886 427.611C446.157 426.412 446.157 426.412 446.433 425.189C448.256 417.097 450.026 408.995 451.601 400.851C451.938 399.106 451.938 399.106 452.283 397.325C452.732 394.301 452.959 391.545 452.757 388.496C445.243 379.658 430.816 374.271 420.812 368.762C422.654 359.844 425.853 351.778 429.561 343.507C430.09 342.312 430.618 341.117 431.145 339.921C435.354 330.383 435.354 330.383 436.658 327.489C437.45 325.731 438.232 323.969 439.012 322.206C439.47 321.183 439.929 320.161 440.401 319.107C443.712 310.014 441.33 301.869 437.526 293.398C436.969 292.206 436.408 291.015 435.845 289.826C435.558 289.213 435.272 288.599 434.978 287.967C431.755 280.143 431.755 280.143 426.449 273.851C424.473 273.18 424.473 273.18 422.691 272.912C425.729 254.837 425.729 254.837 429.268 251.298Z" fill="#4694FC"/>
<path d="M293.559 173.244C294.625 173.264 295.69 173.283 296.789 173.303C300.102 178.826 299.778 185.492 299.783 191.745C299.795 192.438 299.806 193.13 299.818 193.844C299.829 197.759 299.487 200.796 297.728 204.313C294.472 204.778 294.472 204.778 291.151 205.253C286.707 199.088 286.269 194.285 286.218 186.929C286.199 186.227 286.18 185.526 286.16 184.803C286.129 180.474 286.556 177.809 289.272 174.243C290.212 173.303 290.212 173.303 293.559 173.244Z" fill="#FAAB4F"/>
<path d="M219.861 171.952C222.563 172.363 222.563 172.363 224.442 174.243C227.154 183.436 227.545 193.294 224.442 202.434C222.563 204.313 222.563 204.313 219.803 204.666C216.925 204.313 216.925 204.313 215.222 202.669C212.599 197.698 212.929 192.481 212.873 186.987C212.846 186.103 212.819 185.218 212.791 184.306C212.753 180.189 212.775 177.735 214.881 174.118C216.925 172.363 216.925 172.363 219.861 171.952Z" fill="#FAAB4F"/>
<path d="M246.991 216.529C249.634 216.647 249.634 216.647 252.629 217.469C254.743 219.818 254.743 219.818 256.387 222.168C259.165 223.557 261.782 223.164 264.843 223.107C266.083 220.937 267.324 218.766 268.601 216.529C271.303 216.412 271.303 216.412 274.239 216.529C276.118 218.409 276.118 218.409 276.177 221.345C275.379 226.09 271.986 229.299 268.601 232.504C264.857 234.377 260.458 233.932 256.387 233.444C252.443 231.896 249.707 229.739 246.991 226.514C245.793 223.369 245.795 220.805 246.052 217.469C246.362 217.159 246.672 216.849 246.991 216.529Z" fill="#FAAB4F"/>
<path d="M448.76 207.694C468.399 211.2 486.403 226.139 499.801 240.044C502.743 243.057 505.916 245.765 509.131 248.479C509.935 249.18 510.739 249.88 511.568 250.601C522.462 259.875 531.516 263.39 545.681 262.764C549.728 262.376 553.458 261.094 557.265 259.73C559.702 258.874 562.033 258.355 564.565 257.877C564.414 258.461 564.263 259.046 564.108 259.649C563.394 262.424 562.686 265.201 561.982 267.978C561.596 269.498 561.596 269.498 561.202 271.048C559.348 278.465 557.752 285.898 556.468 293.436C555.345 299.612 555.345 299.612 552.351 302.043C550.699 302.85 550.699 302.85 548.879 303.485C547.869 303.841 547.869 303.84 546.839 304.203C546.138 304.44 545.438 304.677 544.717 304.921C544.039 305.161 543.361 305.401 542.662 305.649C522.81 312.521 504.987 310.363 486.346 301.338C479.599 297.903 473.613 293.734 467.79 288.887C466.948 288.188 466.106 287.489 465.239 286.769C460.841 282.965 457.135 279.053 453.66 274.402C446.768 265.313 439.918 257.455 430.207 251.299C430.57 245.253 432.35 240.24 434.468 234.589C436.486 229 437.963 223.234 439.468 217.489C439.689 216.674 439.911 215.86 440.139 215.021C440.33 214.293 440.522 213.564 440.719 212.814C442.295 208.842 444.458 207.469 448.76 207.694Z" fill="#FDD161"/>
<path d="M456.515 162.966C473.644 164.693 489.024 168.776 500.692 182.128C503.792 186.209 505.748 190.706 507.78 195.386C514.009 209.601 522.542 220.021 537.318 225.926C546.41 229.348 553.205 229.581 562.404 226.562C565.103 225.769 567.412 225.578 570.203 225.926C572.082 227.806 572.082 227.806 572.394 230.522C572.24 235.684 570.498 240.535 568.97 245.425C568.68 246.403 568.39 247.38 568.091 248.388C565.619 256.435 565.619 256.435 562.686 258.816C560.315 259.881 560.315 259.881 557.636 260.813C556.757 261.126 555.878 261.438 554.972 261.76C545.561 264.686 534.026 265.084 524.843 261.191C517.43 257.032 510.832 251.461 504.987 245.315C502.803 243.071 500.433 241.065 498.058 239.027C496.557 237.712 495.085 236.364 493.632 234.997C479.955 222.152 462.545 209.816 443.361 208.072C444.203 203.062 445.303 198.275 446.976 193.474C449.044 187.378 450.774 181.215 452.463 175.006C453.032 172.917 453.603 170.828 454.177 168.74C454.547 167.379 454.547 167.379 454.925 165.99C455.576 163.906 455.576 163.906 456.515 162.966Z" fill="#4594FD"/>
<path d="M450.349 154.215C453.696 154.509 453.696 154.509 455.517 155.507C458.294 160.572 455.923 166.768 454.462 171.933C454.17 172.928 453.879 173.923 453.579 174.947C453.285 175.978 452.99 177.008 452.687 178.07C450.59 185.347 448.369 192.582 445.972 199.766C444.895 203.048 444.301 205.518 444.301 209.012C443.681 209.012 443.06 209.012 442.422 209.012C442.198 209.971 442.198 209.971 441.97 210.95C440.47 217.184 438.713 223.305 436.765 229.412C435.698 232.765 434.662 236.123 433.69 239.505C433.49 240.2 433.29 240.895 433.084 241.611C432.709 242.925 432.337 244.24 431.969 245.556C430.971 249.039 429.799 252.358 428.405 255.703C426.099 261.347 424.518 267.151 422.926 273.029C422.629 274.107 422.332 275.185 422.026 276.296C421.303 278.926 420.585 281.556 419.872 284.188C418.678 283.445 417.484 282.701 416.29 281.956C415.292 281.335 415.292 281.335 414.275 280.701C412.68 279.695 411.106 278.656 409.537 277.61C410.045 270.566 411.772 264.346 413.941 257.642C416.774 248.765 419.407 239.852 421.951 230.889C424.891 220.537 427.88 210.2 430.881 199.866C431.885 196.407 432.886 192.947 433.881 189.486C434.862 186.073 435.85 182.663 436.843 179.254C437.215 177.973 437.584 176.692 437.951 175.41C443.848 154.806 443.848 154.806 450.349 154.215Z" fill="#F8A950"/>
<path d="M387.927 328.354C391.901 329.991 395.563 331.677 399.201 333.993C399.093 335.618 398.974 337.243 398.849 338.867C398.784 339.772 398.718 340.677 398.651 341.609C398.26 344.344 397.511 346.518 396.383 349.028C392.09 348.202 388.209 346.491 385.108 343.39C385.466 338.2 386.583 333.371 387.927 328.354Z" fill="#F4AA54"/>
<path d="M261.966 293.996C264.843 294.525 264.843 294.525 267.133 296.463C269.035 300.038 268.681 301.941 267.662 305.802C265.783 307.681 265.783 307.681 263.081 308.033C260.145 307.681 260.145 307.681 257.914 306.154C255.94 303.269 255.886 301.718 256.387 298.284C257.851 295.192 258.581 294.645 261.966 293.996Z" fill="#4C94F7"/>
<path d="M261.966 319.369C264.843 319.897 264.843 319.897 267.133 321.835C269.035 325.41 268.681 327.314 267.662 331.174C265.783 333.053 265.783 333.053 263.081 333.405C260.145 333.053 260.145 333.053 257.914 331.526C255.94 328.641 255.886 327.09 256.387 323.656C257.851 320.564 258.581 320.017 261.966 319.369Z" fill="#4B94F7"/>
</svg>
