<svg width="73" height="37" viewBox="0 0 73 37" fill="none" xmlns="http://www.w3.org/2000/svg">
<path d="M-9.53674e-07 37C-9.53674e-07 32.1411 0.9441 27.3298 2.7784 22.8407C4.61269 18.3517 7.30126 14.2728 10.6906 10.837C14.0799 7.40128 18.1037 4.67588 22.5321 2.81646C26.9604 0.957036 31.7068 1.03073e-06 36.5 1.24312e-06C41.2932 1.45551e-06 46.0396 0.957035 50.4679 2.81646C54.8963 4.67588 58.9201 7.40128 62.3094 10.8371C65.6987 14.2728 68.3873 18.3517 70.2216 22.8407C72.0559 27.3298 73 32.1411 73 37L59.4392 37C59.4392 33.9463 58.8459 30.9225 57.6931 28.1013C56.5403 25.2801 54.8506 22.7166 52.7205 20.5573C50.5904 18.3981 48.0616 16.6852 45.2785 15.5166C42.4953 14.348 39.5124 13.7466 36.5 13.7466C33.4876 13.7466 30.5047 14.348 27.7216 15.5166C24.9384 16.6852 22.4096 18.3981 20.2795 20.5573C18.1494 22.7166 16.4597 25.2801 15.3069 28.1013C14.1541 30.9225 13.5608 33.9463 13.5608 37L-9.53674e-07 37Z" fill="#FFD361"/>
</svg>
