<svg width="1280" height="90" viewBox="0 0 1280 90" fill="none" xmlns="http://www.w3.org/2000/svg">
<path d="M-1 0V90L22.944 80.5016C34.0845 80.5016 34.0845 90 45.3914 90C56.532 90 56.532 80.5016 67.8388 80.5016C78.9794 80.5016 78.9794 90 90.2863 90C101.427 90 101.427 80.5016 112.734 80.5016C123.874 80.5016 123.874 90 135.181 90C146.322 90 146.322 80.5016 157.629 80.5016C168.769 80.5016 168.769 90 180.076 90C191.217 90 191.217 80.5016 202.523 80.5016C213.664 80.5016 213.664 90 224.971 90C236.111 90 236.111 80.5016 247.418 80.5016C258.559 80.5016 258.559 90 269.866 90C281.006 90 281.006 80.5016 292.313 80.5016C303.454 80.5016 303.454 90 314.761 90C326.067 90 325.901 80.5016 337.208 80.5016C348.349 80.5016 348.349 90 359.655 90C370.796 90 370.796 80.5016 382.103 80.5016C393.243 80.5016 393.243 90 404.55 90C415.691 90 415.691 80.5016 426.998 80.5016C438.138 80.5016 438.138 90 449.445 90C460.586 90 460.586 80.5016 471.893 80.5016C483.033 80.5016 483.033 90 494.34 90C505.481 90 505.481 80.5016 516.787 80.5016C527.928 80.5016 527.928 90 539.235 90C550.375 90 550.375 80.5016 561.682 80.5016C572.823 80.5016 572.823 90 584.13 90C595.27 90 595.27 80.5016 606.577 80.5016C617.718 80.5016 617.718 90 629.025 90C640.331 90 640.165 80.5016 651.472 80.5016C662.779 80.5016 662.613 90 673.919 90C685.226 90 685.06 80.5016 696.367 80.5016C707.507 80.5016 707.507 90 718.814 90C729.955 90 729.955 80.5016 741.262 80.5016C752.402 80.5016 752.402 90 763.709 90C774.85 90 774.85 80.5016 786.157 80.5016C797.297 80.5016 797.297 90 808.604 90C819.745 90 819.745 80.5016 831.051 80.5016C842.192 80.5016 842.192 90 853.499 90C864.639 90 864.639 80.5016 875.946 80.5016C887.087 80.5016 887.087 90 898.394 90C909.534 90 909.534 80.5016 920.841 80.5016C931.982 80.5016 931.982 90 943.289 90C954.429 90 954.429 80.5016 965.736 80.5016C977.043 80.5016 976.877 90 988.183 90C999.324 90 999.324 80.5016 1010.63 80.5016C1021.77 80.5016 1021.77 90 1033.08 90C1044.22 90 1044.22 80.5016 1055.53 80.5016C1066.67 80.5016 1066.67 90 1077.97 90C1089.11 90 1089.11 80.5016 1100.42 80.5016C1111.56 80.5016 1111.56 90 1122.87 90C1134.01 90 1134.01 80.5016 1145.32 80.5016C1156.46 80.5016 1156.46 90 1167.76 90C1178.9 90 1178.9 80.5016 1190.21 80.5016C1201.35 80.5016 1201.35 90 1212.66 90C1223.8 90 1223.8 80.5016 1235.11 80.5016C1246.25 80.5016 1246.25 90 1257.55 90C1268.69 90 1268.69 80.5016 1280 80.5016V0H-1Z" fill="white"/>
</svg>
