<svg width="141" height="36" viewBox="0 0 141 36" fill="none" xmlns="http://www.w3.org/2000/svg">
<path d="M15.912 35.576C11.144 35.576 7.416 34.248 4.728 31.592C2.04 28.936 0.696 25.144 0.696 20.216V1.4H8.472V19.928C8.472 23.128 9.128 25.432 10.44 26.84C11.752 28.248 13.592 28.952 15.96 28.952C18.328 28.952 20.168 28.248 21.48 26.84C22.792 25.432 23.448 23.128 23.448 19.928V1.4H31.128V20.216C31.128 25.144 29.784 28.936 27.096 31.592C24.408 34.248 20.68 35.576 15.912 35.576ZM54.1241 35V29.96L53.6441 28.856V19.832C53.6441 18.232 53.1481 16.984 52.1561 16.088C51.1961 15.192 49.7081 14.744 47.6921 14.744C46.3161 14.744 44.9561 14.968 43.6121 15.416C42.3001 15.832 41.1801 16.408 40.2521 17.144L37.5641 11.912C38.9721 10.92 40.6681 10.152 42.6521 9.608C44.6361 9.064 46.6521 8.792 48.7001 8.792C52.6361 8.792 55.6921 9.72 57.8681 11.576C60.0441 13.432 61.1321 16.328 61.1321 20.264V35H54.1241ZM46.2521 35.384C44.2361 35.384 42.5081 35.048 41.0681 34.376C39.6281 33.672 38.5241 32.728 37.7561 31.544C36.9881 30.36 36.6041 29.032 36.6041 27.56C36.6041 26.024 36.9721 24.68 37.7081 23.528C38.4761 22.376 39.6761 21.48 41.3081 20.84C42.9401 20.168 45.0681 19.832 47.6921 19.832H54.5561V24.2H48.5081C46.7481 24.2 45.5321 24.488 44.8601 25.064C44.2201 25.64 43.9001 26.36 43.9001 27.224C43.9001 28.184 44.2681 28.952 45.0041 29.528C45.7721 30.072 46.8121 30.344 48.1241 30.344C49.3721 30.344 50.4921 30.056 51.4841 29.48C52.4761 28.872 53.1961 27.992 53.6441 26.84L54.7961 30.296C54.2521 31.96 53.2601 33.224 51.8201 34.088C50.3801 34.952 48.5241 35.384 46.2521 35.384Z" fill="#459BFF"/>
<path d="M84.6611 35.576C82.0051 35.576 79.5571 35.16 77.3171 34.328C75.1091 33.464 73.1731 32.248 71.5091 30.68C69.8771 29.112 68.5971 27.272 67.6691 25.16C66.7731 23.048 66.3251 20.728 66.3251 18.2C66.3251 15.672 66.7731 13.352 67.6691 11.24C68.5971 9.128 69.8931 7.288 71.5571 5.72C73.2211 4.152 75.1731 2.952 77.4131 2.12C79.6531 1.256 82.1171 0.823999 84.8051 0.823999C87.7811 0.823999 90.4531 1.32 92.8211 2.312C95.2211 3.304 97.2371 4.744 98.8691 6.632L93.8771 11.24C92.6611 9.96 91.3331 9.016 89.8931 8.408C88.4531 7.768 86.8851 7.448 85.1891 7.448C83.5571 7.448 82.0691 7.704 80.7251 8.216C79.3811 8.728 78.2131 9.464 77.2211 10.424C76.2611 11.384 75.5091 12.52 74.9651 13.832C74.4531 15.144 74.1971 16.6 74.1971 18.2C74.1971 19.768 74.4531 21.208 74.9651 22.52C75.5091 23.832 76.2611 24.984 77.2211 25.976C78.2131 26.936 79.3651 27.672 80.6771 28.184C82.0211 28.696 83.4931 28.952 85.0931 28.952C86.6291 28.952 88.1171 28.712 89.5571 28.232C91.0291 27.72 92.4531 26.872 93.8291 25.688L98.2451 31.304C96.4211 32.68 94.2931 33.736 91.8611 34.472C89.4611 35.208 87.0611 35.576 84.6611 35.576ZM91.1411 30.296V17.672H98.2451V31.304L91.1411 30.296ZM121.788 35.576C119.132 35.576 116.668 35.144 114.396 34.28C112.156 33.416 110.204 32.2 108.54 30.632C106.908 29.064 105.628 27.224 104.7 25.112C103.804 23 103.356 20.696 103.356 18.2C103.356 15.704 103.804 13.4 104.7 11.288C105.628 9.176 106.924 7.336 108.588 5.768C110.252 4.2 112.204 2.984 114.444 2.12C116.684 1.256 119.116 0.823999 121.74 0.823999C124.396 0.823999 126.828 1.256 129.036 2.12C131.276 2.984 133.212 4.2 134.844 5.768C136.508 7.336 137.804 9.176 138.732 11.288C139.66 13.368 140.124 15.672 140.124 18.2C140.124 20.696 139.66 23.016 138.732 25.16C137.804 27.272 136.508 29.112 134.844 30.68C133.212 32.216 131.276 33.416 129.036 34.28C126.828 35.144 124.412 35.576 121.788 35.576ZM121.74 28.952C123.244 28.952 124.62 28.696 125.868 28.184C127.148 27.672 128.268 26.936 129.228 25.976C130.188 25.016 130.924 23.88 131.436 22.568C131.98 21.256 132.252 19.8 132.252 18.2C132.252 16.6 131.98 15.144 131.436 13.832C130.924 12.52 130.188 11.384 129.228 10.424C128.3 9.464 127.196 8.728 125.916 8.216C124.636 7.704 123.244 7.448 121.74 7.448C120.236 7.448 118.844 7.704 117.564 8.216C116.316 8.728 115.212 9.464 114.252 10.424C113.292 11.384 112.54 12.52 111.996 13.832C111.484 15.144 111.228 16.6 111.228 18.2C111.228 19.768 111.484 21.224 111.996 22.568C112.54 23.88 113.276 25.016 114.204 25.976C115.164 26.936 116.284 27.672 117.564 28.184C118.844 28.696 120.236 28.952 121.74 28.952Z" fill="#FFD361"/>
</svg>
