<svg width="178" height="65" viewBox="0 0 178 65" fill="none" xmlns="http://www.w3.org/2000/svg">
<path d="M145.236 18.7086C141.792 15.2644 141.792 9.68037 145.236 6.23622V6.23622C148.68 2.79206 154.264 2.79206 157.709 6.23621L170.973 19.5005L158.5 31.9729L145.236 18.7086Z" fill="#459BFF"/>
<path d="M159.291 6.2639C162.736 2.81974 168.32 2.81975 171.764 6.26391V6.26391C175.208 9.70806 175.208 15.2921 171.764 18.7363L158.499 32.0006L146.027 19.5282L159.291 6.2639Z" fill="#FFD361"/>
<circle cx="158.275" cy="37.7833" r="4.07141" fill="#459BFF"/>
<path d="M18.912 53.576C14.144 53.576 10.416 52.248 7.728 49.592C5.04 46.936 3.696 43.144 3.696 38.216V19.4H11.472V37.928C11.472 41.128 12.128 43.432 13.44 44.84C14.752 46.248 16.592 46.952 18.96 46.952C21.328 46.952 23.168 46.248 24.48 44.84C25.792 43.432 26.448 41.128 26.448 37.928V19.4H34.128V38.216C34.128 43.144 32.784 46.936 30.096 49.592C27.408 52.248 23.68 53.576 18.912 53.576ZM57.1241 53V47.96L56.6441 46.856V37.832C56.6441 36.232 56.1481 34.984 55.1561 34.088C54.1961 33.192 52.7081 32.744 50.6921 32.744C49.3161 32.744 47.9561 32.968 46.6121 33.416C45.3001 33.832 44.1801 34.408 43.2521 35.144L40.5641 29.912C41.9721 28.92 43.6681 28.152 45.6521 27.608C47.6361 27.064 49.6521 26.792 51.7001 26.792C55.6361 26.792 58.6921 27.72 60.8681 29.576C63.0441 31.432 64.1321 34.328 64.1321 38.264V53H57.1241ZM49.2521 53.384C47.2361 53.384 45.5081 53.048 44.0681 52.376C42.6281 51.672 41.5241 50.728 40.7561 49.544C39.9881 48.36 39.6041 47.032 39.6041 45.56C39.6041 44.024 39.9721 42.68 40.7081 41.528C41.4761 40.376 42.6761 39.48 44.3081 38.84C45.9401 38.168 48.0681 37.832 50.6921 37.832H57.5561V42.2H51.5081C49.7481 42.2 48.5321 42.488 47.8601 43.064C47.2201 43.64 46.9001 44.36 46.9001 45.224C46.9001 46.184 47.2681 46.952 48.0041 47.528C48.7721 48.072 49.8121 48.344 51.1241 48.344C52.3721 48.344 53.4921 48.056 54.4841 47.48C55.4761 46.872 56.1961 45.992 56.6441 44.84L57.7961 48.296C57.2521 49.96 56.2601 51.224 54.8201 52.088C53.3801 52.952 51.5241 53.384 49.2521 53.384Z" fill="#459BFF"/>
<path d="M87.6611 53.576C85.0051 53.576 82.5571 53.16 80.3171 52.328C78.1091 51.464 76.1731 50.248 74.5091 48.68C72.8771 47.112 71.5971 45.272 70.6691 43.16C69.7731 41.048 69.3251 38.728 69.3251 36.2C69.3251 33.672 69.7731 31.352 70.6691 29.24C71.5971 27.128 72.8931 25.288 74.5571 23.72C76.2211 22.152 78.1731 20.952 80.4131 20.12C82.6531 19.256 85.1171 18.824 87.8051 18.824C90.7811 18.824 93.4531 19.32 95.8211 20.312C98.2211 21.304 100.237 22.744 101.869 24.632L96.8771 29.24C95.6611 27.96 94.3331 27.016 92.8931 26.408C91.4531 25.768 89.8851 25.448 88.1891 25.448C86.5571 25.448 85.0691 25.704 83.7251 26.216C82.3811 26.728 81.2131 27.464 80.2211 28.424C79.2611 29.384 78.5091 30.52 77.9651 31.832C77.4531 33.144 77.1971 34.6 77.1971 36.2C77.1971 37.768 77.4531 39.208 77.9651 40.52C78.5091 41.832 79.2611 42.984 80.2211 43.976C81.2131 44.936 82.3651 45.672 83.6771 46.184C85.0211 46.696 86.4931 46.952 88.0931 46.952C89.6291 46.952 91.1171 46.712 92.5571 46.232C94.0291 45.72 95.4531 44.872 96.8291 43.688L101.245 49.304C99.4211 50.68 97.2931 51.736 94.8611 52.472C92.4611 53.208 90.0611 53.576 87.6611 53.576ZM94.1411 48.296V35.672H101.245V49.304L94.1411 48.296ZM124.788 53.576C122.132 53.576 119.668 53.144 117.396 52.28C115.156 51.416 113.204 50.2 111.54 48.632C109.908 47.064 108.628 45.224 107.7 43.112C106.804 41 106.356 38.696 106.356 36.2C106.356 33.704 106.804 31.4 107.7 29.288C108.628 27.176 109.924 25.336 111.588 23.768C113.252 22.2 115.204 20.984 117.444 20.12C119.684 19.256 122.116 18.824 124.74 18.824C127.396 18.824 129.828 19.256 132.036 20.12C134.276 20.984 136.212 22.2 137.844 23.768C139.508 25.336 140.804 27.176 141.732 29.288C142.66 31.368 143.124 33.672 143.124 36.2C143.124 38.696 142.66 41.016 141.732 43.16C140.804 45.272 139.508 47.112 137.844 48.68C136.212 50.216 134.276 51.416 132.036 52.28C129.828 53.144 127.412 53.576 124.788 53.576ZM124.74 46.952C126.244 46.952 127.62 46.696 128.868 46.184C130.148 45.672 131.268 44.936 132.228 43.976C133.188 43.016 133.924 41.88 134.436 40.568C134.98 39.256 135.252 37.8 135.252 36.2C135.252 34.6 134.98 33.144 134.436 31.832C133.924 30.52 133.188 29.384 132.228 28.424C131.3 27.464 130.196 26.728 128.916 26.216C127.636 25.704 126.244 25.448 124.74 25.448C123.236 25.448 121.844 25.704 120.564 26.216C119.316 26.728 118.212 27.464 117.252 28.424C116.292 29.384 115.54 30.52 114.996 31.832C114.484 33.144 114.228 34.6 114.228 36.2C114.228 37.768 114.484 39.224 114.996 40.568C115.54 41.88 116.276 43.016 117.204 43.976C118.164 44.936 119.284 45.672 120.564 46.184C121.844 46.696 123.236 46.952 124.74 46.952Z" fill="#FFD361"/>
</svg>
